<?xml version="1.0" standalone="no"?>
<!DOCTYPE svg PUBLIC "-//W3C//DTD SVG 20010904//EN"
 "http://www.w3.org/TR/2001/REC-SVG-20010904/DTD/svg10.dtd">
<svg version="1.0" xmlns="http://www.w3.org/2000/svg"
 width="718.000000pt" height="718.000000pt" viewBox="0 0 718.000000 718.000000"
 preserveAspectRatio="xMidYMid meet">
<metadata>
Created by potrace 1.14, written by Peter Selinger 2001-2017
</metadata>
<g transform="translate(0.000000,718.000000) scale(0.100000,-0.100000)"
fill="#000000" stroke="none">
<path d="M3430 7007 c-63 -94 -203 -302 -310 -461 -108 -160 -317 -471 -465
-691 -147 -220 -305 -454 -350 -520 -45 -66 -220 -327 -390 -580 -169 -253
-315 -468 -323 -478 -15 -16 -14 -17 4 -11 10 4 24 10 29 14 6 4 48 27 95 52
136 73 210 112 470 253 135 73 279 151 320 173 41 22 158 85 260 140 102 55
219 117 260 139 41 22 95 52 120 65 25 14 110 60 190 103 80 43 159 86 176 96
31 17 32 17 85 -13 30 -16 95 -51 144 -77 50 -27 115 -62 145 -78 30 -17 174
-95 320 -173 146 -78 288 -155 315 -170 28 -15 91 -49 140 -75 50 -26 104 -55
120 -65 17 -10 71 -39 120 -65 50 -26 206 -110 347 -186 142 -77 260 -139 263
-139 6 0 -56 92 -430 645 -56 83 -168 249 -250 370 -141 209 -205 303 -510
755 -272 403 -407 603 -580 860 -98 146 -183 270 -189 277 -8 9 -40 -31 -126
-160z"/>
<path d="M1596 3633 c10 -15 60 -89 110 -163 114 -169 622 -927 979 -1460 175
-262 270 -413 269 -428 -1 -13 4 -21 12 -20 7 2 12 0 11 -3 -1 -3 4 -13 11
-22 11 -13 10 -17 -5 -25 -10 -5 -25 -7 -33 -4 -13 5 -13 3 -1 -11 11 -13 17
-15 28 -6 11 10 12 8 7 -6 -5 -13 -4 -16 4 -11 7 4 10 2 7 -6 -4 -9 2 -14 16
-15 16 -2 18 1 10 11 -9 10 -8 15 3 19 10 4 13 1 9 -9 -3 -8 1 -14 8 -14 11 0
11 -2 -1 -10 -8 -5 -28 -7 -44 -4 -24 4 -27 2 -17 -9 11 -14 37 -15 76 -3 17
6 17 5 -1 -5 -22 -11 -22 -11 -2 -31 11 -11 26 -17 34 -14 9 4 12 2 8 -5 -3
-6 -15 -9 -25 -6 -25 7 -42 -17 -33 -45 4 -13 7 -26 6 -31 -1 -4 11 -6 27 -5
16 1 28 5 25 9 -2 4 3 10 12 13 22 8 24 8 24 -8 0 -8 8 -13 17 -12 12 1 75
-85 207 -282 179 -266 191 -281 207 -265 9 10 96 137 194 283 98 146 183 268
188 272 6 4 24 4 41 1 22 -5 27 -3 21 7 -5 9 -4 11 3 6 6 -4 24 0 39 9 27 16
27 16 6 0 -31 -23 -29 -30 7 -31 17 -1 30 2 30 7 0 5 5 9 11 9 5 0 7 -4 4 -10
-4 -6 14 -9 48 -7 31 1 53 -1 51 -5 -3 -4 7 -6 21 -5 14 1 30 9 35 17 8 13 10
13 10 -2 0 -22 32 -28 48 -8 12 13 13 13 8 -2 -3 -10 -1 -18 4 -18 6 0 10 6
10 13 0 8 3 8 8 2 9 -13 112 -34 112 -23 0 4 -10 8 -22 9 -13 0 -17 3 -10 6 7
3 20 1 30 -3 9 -4 20 -6 25 -6 4 1 7 -2 7 -6 0 -4 11 -9 26 -10 14 -1 23 2 19
8 -3 6 -1 10 4 10 6 0 11 -7 11 -17 0 -9 2 -14 6 -11 3 3 20 2 39 -2 21 -5 38
-3 46 4 9 8 10 8 6 0 -4 -7 3 -14 19 -17 18 -3 24 -1 20 9 -3 8 0 11 9 7 8 -3
13 -9 10 -13 -3 -5 3 -9 12 -8 10 0 29 -3 43 -7 14 -4 34 -8 46 -9 11 -1 26
-6 34 -11 9 -5 11 -4 6 3 -4 7 -3 12 3 12 5 0 11 -4 13 -9 3 -8 20 -12 92 -23
10 -2 21 2 23 9 3 8 -3 11 -16 8 -11 -2 -24 2 -27 8 -4 7 -3 8 1 4 5 -4 15 3
22 15 l14 23 -6 -23 c-5 -16 -3 -22 7 -20 7 2 13 -6 13 -17 0 -21 25 -28 37
-10 5 6 8 3 8 -7 0 -17 18 -23 60 -20 8 0 17 -3 20 -7 7 -12 103 -38 118 -33
7 2 9 9 6 14 -4 7 -2 8 5 4 6 -4 9 -11 6 -16 -7 -11 7 -20 39 -22 14 -1 26 -6
26 -11 0 -4 5 -5 10 -2 6 3 10 2 10 -3 0 -6 15 -13 34 -16 19 -4 47 -13 62
-21 33 -16 75 -32 87 -33 4 -1 15 -8 24 -17 14 -14 17 -14 33 0 14 13 17 13
17 0 0 -8 -4 -12 -9 -9 -4 3 -8 2 -8 -3 1 -4 24 -19 51 -33 28 -13 63 -35 77
-47 15 -13 33 -21 40 -18 7 3 10 0 7 -5 -3 -5 3 -18 15 -30 11 -11 20 -22 20
-24 0 -2 -16 -21 -35 -40 -19 -20 -35 -33 -35 -30 0 4 -9 -3 -20 -16 -11 -13
-20 -20 -20 -17 0 3 -26 -9 -57 -26 -32 -18 -73 -39 -90 -46 -18 -7 -33 -17
-33 -22 0 -5 -3 -8 -7 -8 -22 4 -43 -2 -38 -10 3 -5 0 -13 -6 -17 -8 -5 -9 -3
-4 6 6 9 2 10 -16 5 -13 -4 -25 -11 -27 -16 -2 -4 -11 -5 -19 -2 -13 5 -15 2
-10 -12 6 -14 5 -15 -6 -7 -12 10 -52 2 -117 -25 -17 -7 -26 -10 -55 -17 -11
-3 -47 -12 -80 -21 -63 -17 -222 -54 -265 -61 -14 -2 -47 -9 -75 -14 -27 -5
-66 -12 -85 -14 -19 -3 -44 -7 -55 -10 -11 -2 -47 -7 -80 -10 -33 -4 -67 -9
-75 -11 -17 -4 -106 -14 -183 -20 -29 -3 -74 -7 -102 -9 -299 -27 -974 -27
-1183 -1 -18 2 -65 7 -105 10 -99 8 -146 13 -187 20 -19 4 -48 8 -65 10 -36 4
-110 14 -145 20 -14 3 -40 7 -57 10 -18 3 -78 14 -134 25 -55 11 -106 17 -112
13 -7 -3 -9 -3 -5 2 4 4 -41 21 -100 36 -122 32 -265 78 -335 108 -26 11 -48
20 -50 19 -1 0 -30 13 -64 30 -35 17 -63 29 -63 26 0 -3 -10 4 -22 16 -12 11
-27 20 -33 20 -7 0 -20 9 -30 20 -10 11 -22 20 -28 20 -11 0 -67 59 -67 71 0
5 7 12 16 16 8 3 13 11 10 18 -2 7 3 12 12 11 9 0 16 5 14 12 -1 6 1 11 5 10
16 -3 43 15 36 25 -3 6 -1 7 5 3 6 -4 29 5 51 19 23 14 45 25 51 25 5 0 10 5
10 11 0 5 -4 8 -8 5 -5 -3 -9 1 -9 8 0 11 4 12 19 3 14 -9 23 -9 38 0 16 11
156 67 214 87 10 3 16 12 13 19 -3 8 -1 20 5 28 8 11 9 11 5 -2 -7 -20 10 -48
21 -34 4 6 15 11 26 13 36 6 67 22 61 31 -9 15 15 25 28 12 9 -9 7 -11 -8 -5
-16 5 -18 4 -8 -6 7 -8 19 -10 30 -5 25 11 33 13 73 21 19 3 37 9 40 14 3 4
13 6 23 4 19 -3 22 7 6 23 -8 8 -7 13 3 18 7 5 10 5 6 0 -4 -4 -1 -14 7 -21
18 -18 29 -18 21 1 -3 9 1 18 9 21 8 4 12 10 9 15 -3 5 2 6 11 3 10 -4 15 -2
13 7 -2 9 6 14 22 14 15 0 24 -5 22 -12 -1 -7 6 -13 16 -13 10 0 22 -3 26 -7
15 -15 34 -10 45 14 6 13 16 21 21 18 6 -3 10 3 10 14 0 30 19 36 41 12 11
-12 15 -21 9 -21 -6 0 -13 7 -16 15 -9 22 -22 18 -26 -7 -2 -13 -9 -22 -17
-20 -7 1 -11 -3 -9 -10 7 -21 24 -19 37 4 6 13 9 15 7 6 -5 -15 0 -17 32 -11
20 3 47 6 59 7 12 0 19 4 17 8 -3 4 0 8 5 8 6 0 11 -5 11 -11 0 -5 5 -7 10 -4
6 4 7 12 4 18 -5 8 -3 8 7 -1 16 -14 39 -16 39 -2 0 6 -5 9 -11 8 -6 -2 -13 3
-14 10 -2 7 -1 8 1 3 4 -7 15 -5 29 5 16 11 25 12 30 4 4 -6 4 -14 1 -17 -3
-4 -6 -1 -6 5 0 6 -7 9 -15 6 -8 -4 -12 -10 -9 -15 6 -10 40 -8 59 2 6 3 27 5
47 4 28 -1 39 4 44 17 6 19 24 25 24 8 0 -5 -4 -10 -10 -10 -5 0 -10 -4 -10
-9 0 -6 12 -6 28 -2 15 5 37 6 50 5 16 -3 33 6 55 30 18 19 39 36 46 38 21 4
64 56 56 68 -10 17 -25 11 -18 -7 4 -10 -14 4 -39 31 -26 27 -51 46 -57 42 -6
-4 -11 -2 -11 4 0 6 -5 8 -11 4 -16 -9 -30 18 -17 33 7 8 7 13 0 13 -17 0 -34
-27 -22 -35 6 -4 9 -14 8 -22 -2 -9 3 -18 11 -21 8 -2 11 0 8 5 -3 5 0 10 8
10 21 0 19 -10 -5 -25 -12 -7 -18 -17 -15 -22 9 -14 25 -12 23 2 -2 8 10 13
32 13 31 0 35 -3 32 -24 -2 -19 0 -21 12 -12 11 9 15 8 20 -6 5 -11 1 -22 -10
-30 -21 -16 -34 -17 -34 -3 0 6 3 9 8 9 18 -3 32 2 32 12 0 6 -6 9 -14 6 -8
-3 -20 1 -27 9 -12 14 -14 14 -26 -2 -7 -10 -13 -13 -13 -7 0 7 5 15 10 18 12
7 4 25 -11 25 -6 0 -8 -4 -5 -8 2 -4 1 -13 -3 -20 -5 -9 -13 -7 -29 8 -22 21
-37 27 -27 10 3 -5 1 -10 -5 -10 -7 0 -10 6 -7 13 4 10 -4 14 -24 14 -15 0
-26 -4 -23 -9 3 -4 -1 -5 -8 -3 -9 4 -14 -2 -15 -15 -1 -12 5 -20 15 -21 22
-2 24 -2 47 6 16 5 17 5 5 -4 -8 -5 -12 -13 -9 -16 9 -9 40 6 33 16 -3 5 6 4
20 -3 14 -6 26 -16 26 -22 0 -6 -5 -5 -12 2 -7 7 -16 12 -22 12 -5 0 5 -14 22
-31 18 -18 31 -34 28 -36 -2 -3 -18 10 -35 28 -17 18 -35 29 -39 25 -4 -4 3
-16 16 -26 12 -10 22 -21 22 -25 0 -4 -7 -2 -15 5 -12 10 -18 10 -30 0 -9 -8
-15 -8 -15 -2 0 6 6 12 13 15 8 3 7 10 -7 26 -20 22 -37 21 -18 -1 7 -9 4 -22
-13 -46 -18 -26 -24 -30 -29 -17 -3 9 -2 14 2 12 4 -3 14 5 23 17 19 24 9 46
-25 59 -10 4 -16 13 -12 22 3 8 1 17 -4 20 -6 4 -10 -1 -10 -9 0 -9 -1 -19 -1
-23 -1 -5 9 -14 22 -20 13 -7 18 -13 10 -13 -8 0 -23 7 -33 17 -10 9 -18 11
-18 5 0 -6 5 -14 10 -17 6 -3 10 -10 10 -16 0 -5 -8 -1 -18 9 -17 16 -17 18 0
47 10 17 18 34 18 38 0 16 -21 -5 -31 -30 -7 -19 -14 -23 -32 -18 -19 5 -18 2
10 -24 17 -16 29 -32 26 -35 -4 -3 2 -6 13 -7 11 0 14 -3 6 -6 -7 -3 -28 12
-46 32 l-33 36 -37 -34 c-38 -37 -50 -36 -16 1 16 17 17 22 6 22 -8 0 -20 -8
-25 -17 -6 -10 -11 -14 -11 -9 0 4 -8 -2 -19 -15 -17 -21 -17 -25 -3 -35 16
-11 8 -39 -9 -29 -5 4 -9 2 -9 -4 0 -5 5 -12 10 -14 6 -3 5 -4 -2 -3 -7 2 -13
11 -13 21 0 10 -5 20 -12 22 -14 5 74 93 93 93 8 0 14 4 14 8 0 11 -22 32 -34
32 -6 0 -5 -5 2 -12 9 -9 5 -16 -18 -30 -36 -21 -52 -24 -24 -4 18 14 18 16 2
32 -10 10 -21 14 -25 10 -5 -5 -2 -11 5 -13 6 -3 12 -9 12 -15 0 -6 -7 -5 -16
3 -15 12 -16 11 -10 -8 9 -28 -27 -51 -50 -32 -8 6 -14 16 -14 21 0 5 7 3 15
-6 9 -8 22 -13 30 -10 18 7 20 28 3 21 -7 -2 -21 2 -30 11 -16 13 -18 13 -24
-2 -5 -12 -10 -14 -19 -6 -9 8 -15 8 -20 0 -3 -5 -1 -10 4 -10 6 0 11 -5 11
-12 0 -6 -3 -9 -6 -5 -3 3 -20 -8 -36 -24 -17 -16 -33 -27 -36 -25 -2 3 11 18
30 35 39 36 24 42 -17 7 -27 -24 -65 -31 -65 -13 0 5 6 7 14 4 17 -7 79 37 68
48 -4 5 -1 5 6 1 15 -9 45 12 36 25 -3 5 0 9 6 9 7 0 9 -7 6 -16 -4 -10 -2
-14 6 -11 7 2 12 10 10 16 -1 7 2 9 9 5 7 -4 10 -1 7 7 -4 11 -31 14 -119 14
-63 0 -120 4 -126 8 -7 5 -13 4 -13 -1 0 -17 24 -29 52 -26 25 3 26 2 10 -17
-20 -23 -26 -24 -18 -4 6 17 -9 21 -19 5 -4 -6 -1 -18 6 -26 12 -14 15 -14 30
4 13 16 19 18 29 9 10 -10 11 -7 5 11 -4 14 -2 22 5 22 6 0 8 -4 5 -10 -3 -5
-2 -10 4 -10 5 0 11 6 14 13 2 6 8 9 13 4 9 -8 -36 -44 -50 -39 -15 5 -35 -19
-28 -36 3 -9 -6 -4 -21 12 -15 16 -27 23 -27 16 0 -7 8 -19 18 -27 15 -13 15
-13 -5 -3 -25 11 -28 26 -13 50 10 15 -4 40 -23 40 -7 0 -7 -4 1 -12 15 -15
16 -28 2 -28 -6 0 -9 5 -8 11 2 6 -2 13 -7 15 -6 2 -11 -5 -12 -16 -1 -11 4
-20 13 -20 8 0 14 -4 14 -10 0 -5 -8 -7 -17 -4 -12 4 -9 -1 7 -15 14 -11 29
-21 33 -21 10 0 -18 -30 -29 -30 -3 0 -1 6 5 14 17 20 -34 53 -55 35 -10 -8
-14 -8 -14 0 0 6 5 11 11 11 5 0 7 5 4 10 -12 19 -35 -10 -29 -35 7 -26 -14
-44 -27 -24 -13 21 -11 26 18 54 15 14 22 25 15 25 -7 0 -27 -14 -44 -31 -26
-25 -30 -32 -18 -39 10 -7 5 -8 -17 -5 -18 2 -33 -1 -33 -6 0 -5 -5 -9 -11 -9
-8 0 -7 5 1 15 7 9 15 13 17 11 10 -10 72 57 70 75 -1 11 -6 18 -12 16 -5 -2
-9 -11 -7 -20 1 -8 -11 -25 -27 -36 -32 -23 -41 -26 -41 -11 0 6 3 9 8 8 16
-5 51 23 46 36 -3 8 -1 17 5 21 6 3 11 11 11 17 0 6 -16 -2 -35 -16 -19 -15
-39 -25 -44 -22 -5 4 -7 -12 -5 -34 2 -23 -1 -40 -7 -40 -6 0 -7 5 -3 12 5 8
1 9 -12 5 -18 -7 -18 -6 -1 7 9 7 17 19 17 27 0 11 -2 11 -10 -1 -13 -20 -13
-4 0 20 6 11 16 17 23 14 7 -2 22 5 33 17 l19 22 -25 -14 c-14 -7 -36 -14 -50
-14 -19 -1 -24 -6 -22 -20 3 -16 1 -17 -12 -6 -9 7 -21 9 -28 5 -7 -5 -21 -7
-30 -6 -10 2 -18 -1 -18 -7 0 -6 8 -8 18 -5 15 5 15 4 2 -8 -8 -7 -16 -22 -18
-33 -2 -18 0 -17 17 5 l20 25 16 -22 c9 -13 22 -23 29 -23 23 0 46 -34 35 -50
-9 -12 -10 -12 -5 2 7 22 -43 51 -71 42 -14 -5 -15 -4 -4 4 8 6 10 15 6 22 -5
9 -15 1 -32 -26 -17 -27 -22 -32 -17 -14 6 22 5 23 -10 11 -10 -9 -16 -10 -16
-2 0 6 5 11 11 11 5 0 7 4 4 10 -3 5 -2 10 4 10 5 0 8 7 7 15 -3 21 -16 31
-16 12 0 -22 -18 -31 -35 -17 -12 10 -18 10 -30 0 -8 -7 -15 -9 -15 -4 0 5 -5
1 -11 -8 -5 -10 -15 -18 -22 -18 -7 0 -6 4 3 10 20 13 10 12 -29 -1 -33 -12
-37 -19 -20 -36 7 -7 5 -20 -9 -42 -17 -28 -20 -30 -27 -14 -5 10 -8 20 -7 24
0 3 -8 11 -19 17 -17 11 -20 10 -17 -5 2 -10 10 -24 18 -31 13 -11 11 -11 -8
-2 -12 6 -20 15 -17 20 3 5 1 11 -4 14 -12 8 -101 -34 -101 -47 0 -4 -4 -5
-10 -2 -5 3 -10 1 -10 -6 0 -7 -3 -9 -6 -6 -4 4 -20 -3 -35 -14 -16 -11 -29
-18 -29 -14 0 3 -6 0 -14 -7 -8 -7 -11 -17 -8 -22 3 -5 0 -6 -6 -3 -16 10 -44
-4 -38 -19 3 -8 0 -11 -8 -8 -7 2 -22 -3 -34 -13 -11 -10 -32 -27 -45 -38 -14
-11 -23 -23 -20 -27 2 -5 -3 -8 -12 -8 -9 0 -13 -4 -10 -10 3 -5 2 -10 -4 -10
-5 0 -20 -14 -32 -31 -18 -26 -19 -33 -8 -41 11 -8 10 -9 -4 -4 -17 6 -31 -15
-44 -69 -10 -41 -13 -116 -5 -111 5 3 7 -5 5 -17 -5 -26 20 -80 32 -69 5 4 5
1 0 -7 -5 -9 -2 -19 10 -28 11 -7 15 -13 11 -13 -4 0 -1 -6 6 -14 7 -7 19 -23
27 -34 8 -12 18 -19 23 -16 4 3 8 -1 8 -8 0 -14 39 -44 53 -40 4 1 6 -4 5 -10
-2 -7 3 -12 10 -10 6 1 12 -2 12 -7 0 -23 144 -103 332 -185 83 -37 240 -89
366 -122 42 -11 319 -74 346 -79 164 -28 384 -59 511 -71 39 -3 83 -8 98 -9
167 -20 955 -28 1157 -12 160 13 251 21 330 32 19 2 58 7 85 10 28 3 61 8 75
10 14 2 45 6 70 10 25 4 59 9 75 11 68 10 383 76 425 89 25 8 79 23 120 35 84
24 210 66 255 86 141 61 189 84 247 118 37 22 64 44 61 49 -3 6 -1 7 6 3 17
-11 167 115 154 128 -4 3 -1 6 5 6 17 0 56 66 76 128 19 55 16 153 -4 160 -6
2 -8 8 -5 13 9 14 -14 53 -62 105 -13 14 -23 29 -23 35 0 6 -4 7 -10 4 -5 -3
-10 0 -11 7 0 7 -17 27 -37 43 -20 17 -33 25 -29 18 4 -6 3 -15 -3 -18 -6 -4
-10 -3 -9 2 4 21 -4 32 -38 55 -87 57 -97 62 -90 51 6 -9 3 -11 -7 -7 -9 3
-14 9 -11 13 2 4 -21 20 -51 34 -31 15 -53 23 -49 17 3 -6 0 -7 -9 -4 -9 3
-13 10 -10 15 3 5 -6 9 -20 9 -14 0 -26 5 -26 10 0 19 -28 10 -33 -11 -3 -12
-10 -19 -14 -16 -5 3 -15 -3 -21 -14 -11 -17 -10 -20 5 -17 10 2 26 14 35 28
22 31 24 18 3 -14 -18 -27 -57 -29 -61 -3 -1 9 2 15 7 11 5 -3 10 0 10 5 1 6
2 16 3 23 1 15 -42 59 -63 63 -9 2 -29 8 -44 14 -32 12 -49 7 -41 -13 6 -17
-43 -39 -63 -28 -14 8 -14 10 0 15 9 3 14 14 13 24 -2 10 -1 12 1 5 3 -7 9
-10 14 -7 16 11 9 -7 -8 -21 -20 -15 -6 -19 16 -5 14 9 23 50 12 52 -3 0 -16
2 -28 5 -12 2 -25 -1 -28 -6 -4 -6 -11 -8 -16 -4 -5 3 -16 1 -23 -6 -8 -6 -26
-9 -41 -6 -22 4 -26 2 -21 -12 5 -15 5 -15 -6 -1 -7 8 -21 18 -31 22 -13 5
-16 14 -12 37 5 31 -4 36 -58 32 -10 -1 -16 2 -13 6 2 4 -7 9 -22 10 -32 2
-55 7 -100 21 -18 5 -30 6 -27 1 3 -4 -1 -11 -7 -14 -7 -3 -3 -3 9 0 17 4 22
0 25 -18 2 -13 9 -22 17 -20 7 2 22 -5 32 -14 11 -10 22 -15 25 -12 7 7 -46
49 -56 43 -3 -2 -7 2 -7 10 0 11 4 11 23 -2 13 -8 28 -12 33 -8 7 3 8 0 5 -10
-5 -11 -2 -14 10 -9 9 3 13 11 10 16 -4 6 3 5 15 -1 12 -7 25 -9 30 -6 5 3 16
2 25 -1 13 -5 13 -8 1 -20 -17 -18 -31 -18 -16 -1 8 11 4 14 -20 14 -30 0 -30
-1 -13 -15 12 -9 13 -12 4 -9 -8 2 -23 0 -33 -5 -14 -7 -24 -5 -38 8 -24 22
-32 14 -32 -34 l0 -38 -29 28 c-16 15 -34 28 -41 28 -7 0 2 -14 20 -30 30 -27
31 -29 13 -35 -11 -4 -20 -11 -20 -16 0 -5 -5 -9 -11 -9 -8 0 -7 6 2 17 12 15
12 16 -4 10 -11 -4 -16 -3 -12 3 3 6 1 10 -4 10 -6 0 -11 -5 -11 -11 0 -5 -4
-8 -9 -5 -5 4 -11 0 -14 -6 -2 -7 -8 -10 -11 -6 -4 3 4 14 17 23 21 13 30 14
47 5 31 -17 34 -7 5 18 l-25 22 -41 -41 c-32 -32 -43 -38 -50 -28 -14 22 -6
39 26 57 17 9 32 18 34 19 2 2 -1 9 -8 17 -9 11 -8 15 5 20 28 11 40 -11 19
-34 -10 -11 -14 -20 -8 -20 5 0 18 9 28 20 18 20 18 21 -7 45 -16 14 -28 20
-30 13 -2 -6 -31 -12 -68 -12 -43 -1 -65 -6 -68 -15 -3 -9 0 -11 9 -6 11 6 12
5 2 -6 -17 -18 -16 -34 1 -20 11 9 15 8 20 -6 5 -11 1 -22 -10 -30 -21 -16
-34 -17 -34 -3 0 5 3 9 8 9 18 -3 32 2 32 12 0 6 -6 9 -12 6 -7 -2 -21 2 -30
11 -16 13 -18 13 -24 -1 -5 -15 -8 -15 -32 1 -15 9 -33 22 -40 29 -7 7 -19 13
-25 13 -7 0 -3 -8 8 -17 14 -11 15 -14 4 -10 -9 3 -27 -2 -40 -11 -13 -9 -28
-17 -34 -17 -19 -2 -45 -17 -45 -27 0 -5 5 -6 10 -3 6 3 10 1 10 -5 0 -7 -8
-9 -19 -5 -14 4 -22 -2 -32 -24 -8 -17 -20 -33 -27 -36 -8 -3 2 17 22 45 20
27 32 50 28 50 -15 0 -52 -37 -45 -44 18 -18 -16 -2 -41 19 -34 29 -57 34 -33
7 10 -10 17 -23 17 -28 0 -5 -4 -3 -9 4 -7 11 -14 11 -42 -3 -26 -14 -37 -15
-52 -6 -17 11 -18 10 -12 -8 3 -12 2 -21 -3 -21 -15 0 -8 38 11 60 9 11 17 22
17 25 0 6 -42 0 -63 -9 -10 -5 -23 -3 -33 5 -13 10 -19 8 -41 -15 -21 -23 -23
-30 -12 -38 10 -7 8 -8 -8 -3 -15 4 -25 0 -32 -12 -6 -10 -11 -13 -11 -7 0 7
17 28 38 48 40 40 52 85 20 83 -21 -1 -23 -8 -5 -26 10 -10 6 -17 -18 -37 -33
-26 -45 -30 -45 -13 0 5 4 8 8 5 4 -2 18 3 31 13 l23 18 -26 29 -26 29 3 -25
c1 -19 -3 -25 -17 -25 -10 0 -23 -9 -27 -20 -6 -17 -7 -16 -6 7 1 15 6 24 11
21 5 -4 7 1 3 10 -3 10 -2 17 3 17 6 0 10 -7 10 -15 0 -8 4 -15 9 -15 5 0 8
16 7 35 -2 19 3 43 10 52 12 17 13 17 13 -2 1 -45 5 -53 23 -52 10 1 18 4 18
8 0 4 3 16 6 26 5 16 4 16 -10 -1 -15 -19 -22 -11 -17 18 1 4 -4 14 -10 22
-11 13 -6 18 14 15 5 -1 20 8 34 19 18 14 21 20 10 20 -9 0 -19 -4 -22 -10 -3
-5 -12 -10 -18 -10 -8 0 -8 3 1 9 8 4 13 12 13 17 -1 11 69 13 75 2 3 -5 9 -6
13 -3 5 2 7 -7 5 -20 -1 -14 2 -23 7 -20 9 6 7 40 -3 51 -4 3 -24 7 -45 9 -44
2 -44 4 -11 53 33 52 445 662 543 807 83 121 531 788 592 880 18 28 37 55 41
60 27 33 171 255 166 255 -3 0 -74 -37 -158 -81 -83 -45 -185 -100 -226 -122
-41 -22 -95 -51 -120 -65 -25 -13 -74 -40 -110 -59 -91 -50 -176 -95 -240
-130 -30 -17 -89 -48 -130 -70 -41 -23 -277 -149 -523 -282 -246 -132 -453
-241 -459 -241 -10 0 -52 22 -243 125 -33 18 -143 78 -245 133 -102 55 -210
113 -240 130 -82 44 -1015 549 -1090 590 -36 19 -84 46 -108 59 l-44 25 18
-29z m1421 -2128 c0 -8 -4 -15 -9 -15 -10 0 -11 14 -1 23 9 10 10 9 10 -8z
m-92 -45 c3 -5 1 -10 -4 -10 -6 0 -11 5 -11 10 0 6 2 10 4 10 3 0 8 -4 11 -10z
m-565 -40 c0 -5 -4 -10 -10 -10 -5 0 -10 5 -10 10 0 6 5 10 10 10 6 0 10 -4
10 -10z m30 0 c0 -5 -4 -10 -10 -10 -5 0 -10 5 -10 10 0 6 5 10 10 10 6 0 10
-4 10 -10z m2374 -6 c10 -25 -1 -29 -14 -5 -6 12 -7 21 -1 21 5 0 12 -7 15
-16z m33 -1 c14 -17 14 -17 9 0 -6 19 10 24 17 5 2 -7 -9 -21 -25 -30 -34 -21
-50 -24 -23 -4 16 12 17 16 6 30 -7 9 -10 16 -6 16 4 0 14 -8 22 -17z m-1997
-3 c-8 -5 -19 -10 -25 -10 -5 0 -3 5 5 10 8 5 20 10 25 10 6 0 3 -5 -5 -10z
m290 -5 c0 -12 -19 -12 -23 0 -4 9 -1 12 9 8 7 -3 14 -7 14 -8z m2038 -2 c-2
-10 7 -22 22 -30 17 -9 20 -13 8 -13 -9 0 -20 5 -23 10 -7 12 -25 4 -25 -11 0
-6 5 -7 10 -4 6 3 10 1 10 -5 0 -7 -7 -9 -16 -6 -8 3 -24 -3 -36 -14 -12 -11
-23 -18 -26 -16 -2 3 11 18 30 35 39 36 24 42 -17 7 -27 -24 -65 -31 -65 -13
0 5 6 7 14 4 16 -7 79 37 69 47 -4 4 0 4 10 0 11 -4 19 0 23 10 8 21 16 21 12
-1z m-3118 -13 c-24 -15 -36 -11 -14 4 10 8 21 12 24 10 2 -3 -2 -9 -10 -14z
m2080 0 c-24 -15 -36 -11 -14 4 10 8 21 12 24 10 2 -3 -2 -9 -10 -14z m939 -5
c12 -2 21 0 21 6 0 5 5 9 11 9 8 0 8 -5 -1 -15 -7 -8 -16 -12 -21 -9 -5 3 -9
0 -9 -5 0 -6 -5 -11 -11 -11 -5 0 -8 4 -4 9 3 5 -4 12 -15 16 -11 3 -20 11
-20 17 0 7 5 6 14 -1 8 -7 23 -14 35 -16z m-2689 0 c-7 -8 -16 -12 -21 -9 -5
3 -9 0 -9 -5 0 -6 -5 -11 -11 -11 -8 0 -8 5 1 15 7 8 16 12 21 9 5 -3 9 0 9 5
0 6 5 11 11 11 8 0 8 -5 -1 -15z m2240 5 c-8 -5 -12 -12 -9 -15 9 -9 40 6 33
16 -3 5 6 4 20 -3 14 -6 26 -16 26 -22 0 -6 -5 -5 -12 2 -7 7 -17 12 -22 12
-6 -1 0 -10 13 -20 13 -11 19 -20 13 -20 -6 0 -18 7 -27 16 -18 19 -33 11 -17
-9 8 -10 6 -16 -9 -25 -10 -7 -19 -8 -19 -3 0 5 6 11 13 14 8 3 5 12 -10 28
-13 13 -23 18 -23 11 0 -6 -6 -12 -12 -12 -7 1 -2 10 11 20 13 11 28 20 35 20
6 0 4 -4 -4 -10z m-2670 -11 c0 -5 5 -7 10 -4 6 3 10 2 10 -4 0 -19 -16 -19
-28 0 -7 11 -8 19 -2 19 5 0 10 -5 10 -11z m1018 -19 c-1 -16 -5 -30 -10 -30
-5 0 -6 5 -3 10 3 6 1 10 -4 10 -6 0 -11 5 -11 11 0 5 5 7 10 4 6 -3 10 1 10
9 0 9 2 16 4 16 3 0 4 -13 4 -30z m1120 6 c-2 -16 -7 -22 -17 -18 -9 3 -12 1
-7 -6 4 -7 2 -12 -3 -12 -16 0 -13 20 4 26 8 4 15 12 15 20 0 8 2 14 5 14 3 0
4 -11 3 -24z m640 -6 c-1 -16 -5 -30 -10 -30 -5 0 -6 5 -3 10 3 6 1 10 -4 10
-6 0 -11 5 -11 11 0 5 5 7 10 4 6 -3 10 1 10 9 0 9 2 16 4 16 3 0 4 -13 4 -30z
m-678 13 c0 -5 -5 -15 -10 -23 -7 -12 -9 -10 -7 8 1 19 17 33 17 15z m-1730
-7 c0 -3 -4 -8 -10 -11 -5 -3 -10 -1 -10 4 0 6 5 11 10 11 6 0 10 -2 10 -4z
m170 -27 c0 -5 -5 -9 -11 -9 -5 0 -7 5 -4 10 3 6 1 10 -4 10 -6 0 -11 5 -11
11 0 8 5 8 15 -1 8 -7 15 -16 15 -21z m663 6 c-7 -21 -12 -19 -10 4 0 11 5 18
9 15 4 -3 5 -11 1 -19z m1061 19 c9 -3 13 -10 10 -15 -3 -5 -1 -9 5 -9 5 0 11
5 13 12 3 8 6 7 10 -4 8 -19 -29 -19 -41 1 -6 9 -11 10 -15 2 -4 -6 0 -18 8
-27 20 -19 20 -25 2 -18 -18 7 -27 29 -20 49 7 17 7 17 28 9z m66 2 c0 -3 -4
-8 -10 -11 -5 -3 -10 -1 -10 4 0 6 5 11 10 11 6 0 10 -2 10 -4z m280 0 c0 -3
-4 -8 -10 -11 -5 -3 -10 -1 -10 4 0 6 5 11 10 11 6 0 10 -2 10 -4z m480 0 c0
-3 -4 -8 -10 -11 -5 -3 -10 -1 -10 4 0 6 5 11 10 11 6 0 10 -2 10 -4z m300 -8
c0 -3 -9 -6 -20 -5 -11 1 -20 5 -20 9 0 3 9 6 20 5 11 -1 20 -5 20 -9z m100
-13 c0 -8 -8 -20 -18 -27 -10 -7 -18 -24 -17 -37 0 -13 -6 -25 -13 -27 -7 -1
-8 0 -2 3 14 7 13 24 -2 21 -6 -2 -13 4 -13 12 -1 8 0 9 2 2 3 -7 8 -10 13 -7
5 3 7 12 4 19 -3 9 3 17 16 21 15 5 20 13 17 26 -3 10 -1 17 4 13 5 -3 9 -11
9 -19z m-2880 0 c-7 -8 -16 -12 -21 -9 -5 3 -9 0 -9 -6 0 -6 -4 -8 -10 -5 -5
3 -10 2 -10 -3 0 -6 -8 -13 -17 -16 -11 -4 -7 4 10 19 16 14 33 23 38 20 5 -4
9 -1 9 4 0 6 5 11 11 11 8 0 8 -5 -1 -15z m138 6 c11 -7 10 -9 -3 -14 -9 -4
-13 -3 -10 3 3 6 1 10 -4 10 -6 0 -11 -5 -11 -11 0 -5 -4 -7 -10 -4 -5 3 -10
1 -10 -4 0 -6 -6 -11 -12 -11 -7 1 -2 10 11 20 26 22 30 23 49 11z m405 -11
c-3 -11 -7 -20 -9 -20 -2 0 -4 9 -4 20 0 11 4 20 9 20 5 0 7 -9 4 -20z m27 0
c0 -11 -4 -20 -9 -20 -5 0 -7 9 -4 20 3 11 7 20 9 20 2 0 4 -9 4 -20z m1670 5
c-7 -8 -16 -12 -21 -9 -5 3 -9 0 -9 -6 0 -6 -4 -8 -10 -5 -5 3 -10 1 -10 -4 0
-6 -6 -11 -12 -11 -7 1 -2 9 11 20 12 11 27 17 32 14 5 -3 9 0 9 5 0 6 5 11
11 11 8 0 8 -5 -1 -15z m467 -4 c2 -25 -22 -47 -33 -30 -4 8 -3 9 4 5 12 -7
16 5 13 32 -1 6 2 12 6 12 5 0 9 -9 10 -19z m20 -3 c-3 -8 -6 -5 -6 6 -1 11 2
17 5 13 3 -3 4 -12 1 -19z m205 8 c10 6 11 4 0 -7 -10 -11 -15 -10 -30 6 -15
17 -15 18 0 6 9 -7 23 -9 30 -5z m-3672 -7 c0 -5 -4 -8 -9 -5 -5 3 -14 -1 -21
-9 -7 -8 -20 -15 -29 -15 -10 0 -5 7 14 19 35 23 45 25 45 10z m370 0 c0 -5 5
-7 12 -3 7 4 8 3 4 -5 -6 -9 -11 -9 -22 0 -10 8 -14 8 -14 0 0 -6 -5 -11 -11
-11 -8 0 -8 5 1 15 14 17 30 20 30 4z m274 -29 c-3 -2 -9 2 -14 9 -7 12 -11
12 -24 -1 -8 -9 -12 -19 -8 -22 3 -4 -1 -4 -10 -1 -9 4 -19 2 -22 -3 -3 -6 5
-13 19 -16 24 -6 36 -26 15 -26 -5 0 -10 4 -10 9 0 8 -37 24 -52 22 -5 -1 -8
4 -8 10 0 6 6 9 14 6 7 -3 29 7 47 23 30 25 35 26 45 11 7 -9 10 -18 8 -21z
m323 18 c-3 -8 -6 -5 -6 6 -1 11 2 17 5 13 3 -3 4 -12 1 -19z m33 18 c0 -3 -4
-8 -10 -11 -5 -3 -10 -1 -10 4 0 6 5 11 10 11 6 0 10 -2 10 -4z m1760 0 c0 -3
-4 -8 -10 -11 -5 -3 -10 -1 -10 4 0 6 5 11 10 11 6 0 10 -2 10 -4z m9 -31
c-26 -43 -36 -50 -53 -36 -7 6 -16 8 -19 4 -4 -3 -7 -1 -7 6 0 7 6 11 14 8 7
-3 20 0 27 6 11 10 11 9 0 -5 -8 -11 -9 -18 -3 -18 6 0 19 16 28 35 9 19 20
35 25 35 4 0 -1 -16 -12 -35z m611 10 c4 3 16 -8 26 -23 14 -21 14 -24 2 -14
-13 10 -17 10 -22 0 -3 -7 -3 -3 0 10 4 15 1 22 -7 20 -7 -2 -14 4 -14 12 -1
8 0 9 2 2 3 -7 8 -10 13 -7z m30 15 c8 -5 11 -10 5 -10 -5 0 -17 5 -25 10 -8
5 -10 10 -5 10 6 0 17 -5 25 -10z m-2935 -30 c-20 -22 -35 -26 -35 -9 0 5 4 8
9 4 6 -3 15 4 21 16 7 11 14 18 17 15 4 -3 -2 -15 -12 -26z m1735 9 c0 -6 -4
-7 -10 -4 -5 3 -10 11 -10 16 0 6 5 7 10 4 6 -3 10 -11 10 -16z m415 -1 c5 4
5 1 1 -6 -6 -10 -11 -10 -22 -1 -8 6 -14 17 -14 23 0 6 7 3 14 -6 7 -10 17
-14 21 -10z m97 0 c-7 -7 -12 -8 -12 -2 0 14 12 26 19 19 2 -3 -1 -11 -7 -17z
m473 -8 c-20 -22 -35 -26 -35 -9 0 5 4 8 9 4 6 -3 15 4 21 16 7 11 14 18 17
15 4 -3 -2 -15 -12 -26z m-3275 0 c6 -11 15 -18 19 -15 5 2 14 -2 21 -10 9
-10 9 -15 1 -15 -6 0 -11 5 -11 11 0 5 -4 8 -9 4 -5 -3 -16 4 -24 15 -7 11
-17 17 -20 13 -4 -3 -7 -1 -7 5 0 19 18 14 30 -8z m870 -15 c0 -5 -5 -3 -10 5
-5 8 -10 20 -10 25 0 6 5 3 10 -5 5 -8 10 -19 10 -25z m117 -1 c1 -20 -1 -24
-6 -15 -5 8 -7 21 -4 29 5 12 2 12 -15 3 -12 -7 -22 -8 -22 -4 0 4 -4 1 -10
-7 -5 -8 -12 -11 -17 -7 -8 9 17 28 28 21 4 -2 11 0 14 6 12 19 30 4 32 -26z
m1683 -1 c0 -8 -8 -5 -20 7 -11 11 -20 22 -20 25 0 3 9 0 20 -7 11 -7 20 -18
20 -25z m92 20 c-6 -3 -9 -10 -6 -15 4 -7 2 -8 -5 -4 -9 6 -9 11 0 22 6 8 15
12 18 8 3 -4 0 -9 -7 -11z m160 0 c-6 -3 -10 -8 -8 -12 3 -4 -4 -7 -15 -7 -19
0 -18 1 3 17 12 10 25 15 28 12 3 -3 -1 -8 -8 -10z m49 0 c13 -15 12 -15 -8
-4 -24 12 -29 21 -14 21 5 0 15 -7 22 -17z m96 10 c-4 -3 1 -11 10 -18 15 -11
10 -41 -6 -31 -4 3 -12 -4 -19 -14 -10 -16 -8 -18 8 -17 11 1 22 7 24 14 3 7
10 13 16 13 5 0 3 -8 -6 -19 -20 -23 -56 -22 -60 2 -1 9 1 15 6 12 4 -3 11 2
14 10 3 9 -1 18 -9 22 -13 5 -13 7 2 19 19 14 31 19 20 7z m335 -10 c-6 -3
-10 -8 -8 -12 3 -4 -4 -7 -15 -7 -19 0 -18 1 3 17 12 10 25 15 28 12 3 -3 -1
-8 -8 -10z m353 7 c9 7 15 8 15 2 0 -13 -26 -23 -45 -16 -8 4 -15 11 -15 16 0
6 6 5 15 -2 12 -10 18 -10 30 0z m-3687 -14 c-7 -8 -15 -12 -17 -11 -5 6 10
25 20 25 5 0 4 -6 -3 -14z m440 -12 c0 -17 -3 -22 -8 -13 -5 6 -6 18 -3 26 8
19 11 16 11 -13z m82 -3 c-11 -22 -22 -26 -33 -14 -9 9 13 34 24 27 5 -3 9 0
9 7 0 7 3 10 6 7 3 -4 1 -16 -6 -27z m1927 23 c-3 -3 -12 -4 -19 -1 -8 3 -5 6
6 6 11 1 17 -2 13 -5z m93 -9 c-7 -9 -15 -13 -19 -10 -3 3 1 10 9 15 21 14 24
12 10 -5z m563 -2 c-4 -10 -2 -14 4 -10 14 9 35 -18 31 -39 -3 -18 -43 -30
-52 -16 -3 4 0 14 6 22 8 12 9 12 5 -2 -4 -12 0 -16 14 -15 11 1 19 9 19 20 0
10 -3 16 -8 13 -4 -2 -16 2 -27 10 -17 13 -18 16 -5 24 20 13 20 13 13 -7z
m55 -9 c0 -17 -3 -22 -8 -13 -5 6 -6 18 -3 26 8 19 11 16 11 -13z m82 -3 c-11
-22 -22 -26 -33 -14 -9 9 13 34 24 27 5 -3 9 0 9 7 0 7 3 10 6 7 3 -4 1 -16
-6 -27z m240 0 c-11 -22 -22 -26 -33 -14 -9 9 13 34 24 27 5 -3 9 0 9 7 0 7 3
10 6 7 3 -4 1 -16 -6 -27z m37 14 c-4 -8 -2 -17 3 -20 6 -4 10 2 10 11 0 10 3
15 6 11 12 -11 -5 -37 -20 -31 -16 6 -18 44 -3 44 5 0 7 -7 4 -15z m-3443 -37
c4 3 4 -2 0 -12 -7 -17 -8 -17 -18 2 -6 11 -13 21 -16 21 -3 0 -13 3 -23 7
-15 5 -16 9 -5 15 9 6 20 1 34 -15 12 -14 25 -22 28 -18z m29 36 c-7 -3 -9
-13 -6 -22 5 -13 3 -14 -7 -5 -14 13 -5 33 13 32 9 0 9 -2 0 -5z m31 -5 c-4
-8 1 -9 17 -5 13 3 18 3 12 0 -9 -4 -9 -11 3 -30 9 -13 15 -25 13 -25 -22 -8
-52 -3 -56 8 -5 11 -9 11 -24 -3 -25 -23 -24 -9 1 16 11 11 20 15 20 9 0 -5 4
-7 10 -4 5 3 7 0 5 -7 -3 -8 2 -14 14 -15 24 -2 18 23 -10 38 -20 10 -26 29
-8 29 5 0 7 -5 3 -11z m126 1 c0 -5 -10 -14 -21 -21 -13 -6 -19 -7 -15 -1 3 6
0 13 -6 16 -7 3 -2 3 11 0 16 -4 21 -3 17 5 -4 6 -2 11 3 11 6 0 11 -4 11 -10z
m36 -1 c3 -6 1 -16 -6 -22 -10 -9 -12 -8 -7 5 3 9 1 19 -6 22 -9 3 -9 5 0 5 6
1 15 -4 19 -10z m84 1 c0 -5 5 -9 11 -7 6 1 18 -8 26 -20 10 -15 11 -23 4 -23
-6 0 -11 7 -11 15 0 8 -3 14 -7 13 -5 0 -16 2 -25 6 -19 9 -24 26 -8 26 6 0
10 -4 10 -10z m580 0 c-18 -12 -30 -13 -30 -2 0 4 10 9 22 9 18 2 20 0 8 -7z
m114 -5 c-4 -8 -8 -15 -10 -15 -2 0 -4 7 -4 15 0 8 4 15 10 15 5 0 7 -7 4 -15z
m2284 1 c-7 -8 -15 -12 -17 -11 -5 6 10 25 20 25 5 0 4 -6 -3 -14z m284 -4
c-7 -2 -10 -8 -7 -13 4 -5 -2 -6 -11 -2 -11 4 -13 8 -6 11 7 2 10 8 7 13 -4 5
2 6 11 2 11 -4 13 -8 6 -11z m74 9 c-4 -5 -1 -11 6 -13 7 -3 5 -7 -6 -11 -10
-4 -15 -3 -11 3 3 6 0 10 -7 10 -9 0 -9 3 2 10 19 12 23 12 16 1z m-3376 -23
c0 -6 -6 -5 -15 2 -8 7 -15 14 -15 16 0 2 7 1 15 -2 8 -4 15 -11 15 -16z m302
15 c-6 -2 -9 -10 -6 -15 4 -7 2 -8 -4 -4 -18 11 -14 26 6 25 10 0 12 -3 4 -6z
m76 -2 c11 -7 10 -9 -3 -14 -9 -4 -14 -3 -10 2 3 5 -1 12 -7 14 -7 3 -8 6 -3
6 6 0 16 -3 23 -8z m412 5 c0 -2 -7 -6 -15 -10 -8 -3 -15 -1 -15 4 0 6 7 10
15 10 8 0 15 -2 15 -4z m1670 -6 c0 -5 -4 -10 -10 -10 -5 0 -10 5 -10 10 0 6
5 10 10 10 6 0 10 -4 10 -10z m82 1 c-10 -6 -10 -10 3 -21 8 -7 15 -17 15 -23
0 -5 -9 2 -20 16 -25 31 -25 37 -2 37 13 0 14 -2 4 -9z m76 0 c11 -7 10 -9 -3
-14 -9 -4 -14 -3 -10 2 3 5 -1 12 -7 14 -7 3 -8 6 -3 6 6 0 16 -3 23 -8z m102
-13 c0 -6 -6 -5 -15 2 -8 7 -15 14 -15 16 0 2 7 1 15 -2 8 -4 15 -11 15 -16z
m220 12 c0 -5 -4 -10 -10 -10 -5 0 -10 5 -10 10 0 6 5 10 10 10 6 0 10 -4 10
-10z m-3364 -27 c-1 -16 -8 -27 -15 -25 -17 3 -9 -31 9 -40 11 -6 10 -7 -5 -5
-14 1 -20 10 -20 27 0 15 5 24 13 22 7 -1 12 3 11 10 -2 19 0 38 5 38 3 0 4
-12 2 -27z m894 7 c-24 -15 -36 -11 -14 4 10 8 21 12 24 10 2 -3 -2 -9 -10
-14z m170 10 c0 -5 -2 -10 -4 -10 -3 0 -8 5 -11 10 -3 6 -1 10 4 10 6 0 11 -4
11 -10z m1953 -10 c9 -11 12 -20 7 -20 -6 0 -13 7 -16 15 -4 8 -10 12 -15 9
-5 -3 -9 0 -9 5 0 17 14 13 33 -9z m451 4 c9 -24 2 -26 -12 -4 -7 11 -8 20 -3
20 5 0 12 -7 15 -16z m309 -4 c9 -11 12 -20 7 -20 -6 0 -13 7 -16 15 -9 22
-22 18 -26 -7 -2 -13 -12 -22 -25 -24 -27 -4 -35 7 -21 26 8 12 9 12 5 -2 -4
-12 0 -16 14 -15 10 1 19 9 19 17 0 34 19 38 43 10z m-3693 -5 c0 -8 -4 -15
-10 -15 -5 0 -7 7 -4 15 4 8 8 15 10 15 2 0 4 -7 4 -15z m210 0 c0 -8 -4 -15
-10 -15 -5 0 -7 7 -4 15 4 8 8 15 10 15 2 0 4 -7 4 -15z m65 -25 c-4 -6 -11
-8 -16 -5 -5 4 -9 -3 -9 -14 0 -12 5 -20 12 -18 6 1 13 -10 14 -25 2 -16 -1
-28 -6 -28 -5 0 -7 11 -4 25 3 17 0 24 -8 23 -8 -2 -13 7 -13 22 0 15 5 24 13
22 10 -2 12 4 7 20 -5 20 -4 21 5 5 6 -9 8 -22 5 -27z m2583 23 c2 -7 -1 -13
-8 -13 -6 0 -9 4 -5 9 3 5 -5 12 -17 14 -22 5 -21 5 1 4 14 -1 26 -8 29 -14z
m217 -2 c-3 -6 -11 -11 -16 -11 -5 0 -4 6 3 14 14 16 24 13 13 -3z m260 9 c4
-6 10 -8 14 -6 4 3 12 -4 19 -15 15 -24 8 -24 -18 -1 -11 9 -30 20 -43 24
l-22 6 22 1 c12 1 25 -4 28 -9z m-3565 -10 c0 -5 -5 -10 -11 -10 -5 0 -7 5 -4
10 3 6 8 10 11 10 2 0 4 -4 4 -10z m180 -5 c0 -8 6 -14 13 -12 7 1 12 -8 12
-23 0 -15 -5 -24 -12 -22 -16 3 -17 -15 -1 -20 8 -3 7 -6 -4 -10 -11 -5 -15 0
-14 15 1 12 7 21 14 20 7 -2 12 6 12 18 0 11 -4 18 -9 14 -6 -3 -15 4 -21 15
-7 13 -7 20 0 20 5 0 10 -7 10 -15z m288 -5 c-7 -10 -14 -17 -17 -15 -4 4 18
35 25 35 2 0 -1 -9 -8 -20z m76 5 c-4 -8 -8 -15 -10 -15 -2 0 -4 7 -4 15 0 8
4 15 10 15 5 0 7 -7 4 -15z m64 -2 c-2 -9 -13 -18 -25 -19 -25 -4 -39 11 -22
22 7 4 9 3 5 -4 -4 -7 1 -10 14 -9 11 1 20 7 20 14 0 7 3 13 6 13 3 0 4 -7 2
-17z m102 7 c0 -5 -7 -6 -17 -3 -11 4 -14 3 -9 -5 4 -7 1 -15 -8 -18 -9 -3
-13 -10 -10 -15 3 -5 -2 -6 -12 -2 -14 5 -13 8 7 19 13 7 20 13 16 14 -5 0 -5
5 -2 10 8 13 35 13 35 0z m80 -2 c0 -11 -12 -10 -30 2 -12 7 -10 9 8 7 12 0
22 -5 22 -9z m2255 -6 c-3 -3 -11 0 -18 7 -9 10 -8 11 6 5 10 -3 15 -9 12 -12z
m395 8 c18 -12 2 -12 -25 0 -13 6 -15 9 -5 9 8 0 22 -4 30 -9z m50 6 c0 -2 -7
-7 -16 -10 -8 -3 -12 -2 -9 4 6 10 25 14 25 6z m35 -14 c-3 -3 -11 0 -18 7 -9
10 -8 11 6 5 10 -3 15 -9 12 -12z m125 8 c0 -5 -4 -10 -10 -10 -5 0 -10 5 -10
10 0 6 5 10 10 10 6 0 10 -4 10 -10z m80 0 c0 -5 -4 -10 -10 -10 -5 0 -10 5
-10 10 0 6 5 10 10 10 6 0 10 -4 10 -10z m340 1 c0 -5 -6 -14 -14 -20 -16 -13
-32 2 -21 19 8 12 35 13 35 1z m-4042 -26 c-3 -3 -9 2 -12 12 -6 14 -5 15 5 6
7 -7 10 -15 7 -18z m237 6 c-3 -6 -11 -9 -16 -6 -5 4 -9 -3 -9 -14 0 -14 5
-19 20 -16 11 2 23 -1 26 -7 4 -6 3 -8 -3 -5 -6 4 -13 0 -17 -8 -3 -8 -11 -15
-18 -14 -10 0 -10 2 0 6 6 2 12 9 12 14 0 5 -6 8 -12 7 -8 -2 -13 7 -13 22 0
15 5 24 13 23 6 -2 12 2 12 9 0 6 3 9 6 5 3 -3 3 -11 -1 -16z m549 4 c-4 -8
-11 -15 -16 -15 -6 0 -5 6 2 15 7 8 14 15 16 15 2 0 1 -7 -2 -15z m2596 -7 c0
-6 -6 -5 -15 2 -8 7 -15 14 -15 16 0 2 7 1 15 -2 8 -4 15 -11 15 -16z m150 7
c7 -9 8 -15 2 -15 -5 0 -12 7 -16 15 -3 8 -4 15 -2 15 2 0 9 -7 16 -15z m565
5 c-3 -5 -15 -10 -26 -10 -11 0 -18 -4 -14 -9 3 -6 -4 -15 -15 -21 -13 -7 -20
-7 -20 0 0 5 7 10 15 10 8 0 14 5 13 12 -2 6 8 15 22 19 14 4 26 7 28 8 2 1 0
-3 -3 -9z m-4160 -10 c-3 -5 -12 -10 -18 -10 -7 0 -6 4 3 10 19 12 23 12 15 0z
m661 -16 c-3 -15 -8 -29 -11 -32 -3 -3 -3 5 -1 19 2 13 5 27 5 32 1 4 3 7 6 7
3 0 3 -12 1 -26z m2641 6 c-1 -11 -5 -20 -9 -20 -10 0 -10 4 -2 24 8 22 13 20
11 -4z m239 2 c1 -7 0 -8 -3 -2 -8 17 -19 11 -20 -10 -1 -13 2 -18 9 -14 7 4
8 2 4 -5 -4 -6 -12 -9 -17 -6 -7 5 -7 20 0 53 2 9 25 -6 27 -16z m179 -13 c0
-19 -5 -24 -22 -23 -13 1 -23 -4 -23 -12 0 -17 -16 -18 -26 -2 -4 6 -3 8 3 5
6 -4 13 0 16 8 4 8 15 12 26 10 14 -3 19 2 18 16 -1 20 -17 27 -17 7 0 -6 -3
-9 -6 -5 -9 9 6 29 19 24 7 -2 12 -14 12 -28z m105 21 c0 -5 -4 -10 -10 -10
-5 0 -10 5 -10 10 0 6 5 10 10 10 6 0 10 -4 10 -10z m116 -16 c-3 -15 -8 -29
-11 -32 -3 -3 -3 5 -1 19 2 13 5 27 5 32 1 4 3 7 6 7 3 0 3 -12 1 -26z m237
11 c-3 -9 -8 -14 -10 -11 -3 3 -2 9 2 15 9 16 15 13 8 -4z m-4163 -10 c-7 -8
-17 -15 -23 -15 -6 0 -2 7 9 15 25 19 30 19 14 0z m30 0 c0 -8 -4 -15 -10 -15
-5 0 -7 7 -4 15 4 8 8 15 10 15 2 0 4 -7 4 -15z m3447 -7 c-3 -8 -6 -5 -6 6
-1 11 2 17 5 13 3 -3 4 -12 1 -19z m92 -20 c1 -5 -3 -8 -7 -8 -4 0 -8 12 -9
28 -1 23 -1 24 7 7 5 -11 9 -23 9 -27z m78 20 c-3 -8 -6 -5 -6 6 -1 11 2 17 5
13 3 -3 4 -12 1 -19z m80 0 c-3 -8 -6 -5 -6 6 -1 11 2 17 5 13 3 -3 4 -12 1
-19z m58 -9 c-4 -5 3 -9 15 -9 12 0 18 5 15 10 -9 14 24 25 37 12 8 -8 5 -9
-11 -5 -15 4 -21 1 -19 -8 2 -9 -6 -14 -22 -14 -15 0 -24 5 -22 13 1 6 -5 12
-13 12 -8 0 -15 5 -15 10 0 7 7 7 20 0 11 -6 18 -15 15 -21z m402 11 c2 -23
-13 -35 -23 -19 -5 8 -3 9 6 4 10 -6 12 -4 7 7 -3 9 -3 19 0 22 9 8 9 8 10
-14z m-4105 2 c-13 -4 -22 -11 -20 -17 2 -5 -8 -11 -22 -12 l-25 -2 25 8 c14
5 21 9 17 10 -18 2 6 21 26 20 22 -1 22 -1 -1 -7z m108 -2 c0 -5 -4 -10 -10
-10 -5 0 -10 5 -10 10 0 6 5 10 10 10 6 0 10 -4 10 -10z m130 0 c8 -5 11 -10
5 -10 -5 0 -17 5 -25 10 -8 5 -10 10 -5 10 6 0 17 -5 25 -10z m50 -5 c0 -8 -2
-15 -4 -15 -2 0 -6 7 -10 15 -3 8 -1 15 4 15 6 0 10 -7 10 -15z m90 11 c0 -2
-7 -6 -15 -10 -8 -3 -15 -1 -15 4 0 6 7 10 15 10 8 0 15 -2 15 -4z m90 -6 c0
-5 -4 -10 -10 -10 -5 0 -10 5 -10 10 0 6 5 10 10 10 6 0 10 -4 10 -10z m2777
4 c-3 -3 -12 -4 -19 -1 -8 3 -5 6 6 6 11 1 17 -2 13 -5z m77 -9 c-4 -8 -8 -15
-10 -15 -2 0 -4 7 -4 15 0 8 4 15 10 15 5 0 7 -7 4 -15z m563 9 c-3 -3 -12 -4
-19 -1 -8 3 -5 6 6 6 11 1 17 -2 13 -5z m77 -9 c-4 -8 -8 -15 -10 -15 -2 0 -4
7 -4 15 0 8 4 15 10 15 5 0 7 -7 4 -15z m87 2 c-6 -8 -8 -17 -4 -20 3 -4 1 -7
-5 -7 -15 0 -15 13 0 28 16 16 23 15 9 -1z m-3711 -13 c0 -2 -7 -4 -15 -4 -8
0 -15 4 -15 10 0 5 7 7 15 4 8 -4 15 -8 15 -10z m197 10 c-3 -3 -12 -4 -19 -1
-8 3 -5 6 6 6 11 1 17 -2 13 -5z m2753 -4 c0 -5 -2 -10 -4 -10 -3 0 -8 5 -11
10 -3 6 -1 10 4 10 6 0 11 -4 11 -10z m255 1 c3 -5 0 -13 -6 -17 -7 -4 -9 -3
-5 4 3 6 -3 12 -16 15 -23 4 -23 4 -1 6 12 0 24 -3 28 -8z m272 3 c-3 -3 -12
-4 -19 -1 -8 3 -5 6 6 6 11 1 17 -2 13 -5z m113 -4 c0 -5 -2 -10 -4 -10 -3 0
-8 5 -11 10 -3 6 -1 10 4 10 6 0 11 -4 11 -10z m-4080 -10 c0 -5 -4 -10 -10
-10 -5 0 -10 5 -10 10 0 6 5 10 10 10 6 0 10 -4 10 -10z m415 0 c-3 -5 -12
-10 -18 -10 -7 0 -6 4 3 10 19 12 23 12 15 0z m140 -12 c5 4 5 1 1 -5 -10 -18
-26 -16 -26 3 0 9 -5 12 -12 8 -7 -5 -8 -3 -3 6 6 10 11 10 20 -3 7 -9 16 -13
20 -9z m100 13 c3 -5 0 -13 -6 -17 -8 -4 -9 -3 -5 4 11 19 -5 14 -21 -5 -13
-16 -13 -16 -3 5 11 23 25 28 35 13z m3176 -8 c13 -17 13 -17 -5 -3 -18 14
-19 13 -13 -2 3 -10 2 -18 -3 -18 -11 0 -13 23 -3 33 9 9 9 9 24 -10z m224 7
c3 -5 0 -12 -6 -16 -7 -4 -9 -3 -5 4 4 7 -1 10 -14 9 -12 -1 -20 -8 -20 -20 0
-11 4 -15 12 -11 7 4 8 3 4 -5 -4 -6 -12 -9 -17 -6 -9 6 -13 38 -4 46 8 9 45
8 50 -1z m221 -14 c0 -14 -6 -22 -13 -19 -9 4 -9 9 0 24 15 24 15 24 13 -5z
m-4239 -18 c-3 -7 -5 -2 -5 12 0 14 2 19 5 13 2 -7 2 -19 0 -25z m43 11 c0 -6
-4 -7 -10 -4 -5 3 -10 11 -10 16 0 6 5 7 10 4 6 -3 10 -11 10 -16z m3832 -1
c-7 -7 -12 -8 -12 -2 0 14 12 26 19 19 2 -3 -1 -11 -7 -17z m428 19 c0 -1 -9
-10 -19 -19 -17 -14 -20 -14 -25 -2 -3 8 -2 13 2 10 4 -2 14 -1 22 5 16 9 20
11 20 6z m-4387 -27 c-20 -23 -20 -23 -29 -8 -4 6 -3 8 3 5 6 -4 13 0 17 8 3
8 10 15 16 15 5 0 2 -9 -7 -20z m251 9 c3 -3 -6 -5 -19 -5 -14 0 -25 4 -25 8
0 8 36 6 44 -3z m221 1 c-3 -5 -12 -10 -18 -10 -7 0 -6 4 3 10 19 12 23 12 15
0z m35 0 c0 -5 -4 -10 -10 -10 -5 0 -10 5 -10 10 0 6 5 10 10 10 6 0 10 -4 10
-10z m40 -5 c0 -8 -2 -15 -4 -15 -2 0 -6 7 -10 15 -3 8 -1 15 4 15 6 0 10 -7
10 -15z m189 -2 c0 -11 -3 -13 -6 -5 -2 6 -10 9 -15 6 -7 -4 -8 -2 -4 4 11 18
26 14 25 -5z m2936 4 c15 -12 16 -15 4 -22 -8 -5 -10 -4 -6 0 4 5 -3 15 -15
22 -13 7 -18 12 -12 13 5 0 18 -6 29 -13z m328 -7 c-20 -23 -20 -23 -29 -8 -4
6 -3 8 3 5 6 -4 13 0 17 8 3 8 10 15 16 15 5 0 2 -9 -7 -20z m147 10 c0 -5 -4
-10 -10 -10 -5 0 -10 5 -10 10 0 6 5 10 10 10 6 0 10 -4 10 -10z m40 -2 c0 -4
-4 -8 -9 -8 -6 0 -12 4 -15 8 -3 5 1 9 9 9 8 0 15 -4 15 -9z m80 2 c-8 -5 -19
-10 -25 -10 -5 0 -3 5 5 10 8 5 20 10 25 10 6 0 3 -5 -5 -10z m-4105 -10 c-3
-5 -12 -10 -18 -10 -7 0 -6 4 3 10 19 12 23 12 15 0z m125 0 c0 -5 -2 -10 -4
-10 -3 0 -8 5 -11 10 -3 6 -1 10 4 10 6 0 11 -4 11 -10z m3440 0 c0 -5 -4 -10
-10 -10 -5 0 -10 5 -10 10 0 6 5 10 10 10 6 0 10 -4 10 -10z m205 -8 c-3 -3
-11 0 -18 7 -9 10 -8 11 6 5 10 -3 15 -9 12 -12z m475 3 c5 3 14 -5 20 -17 9
-20 9 -21 -2 -7 -7 9 -21 15 -30 13 -10 -1 -21 3 -25 8 -3 7 -1 8 5 4 7 -4 12
-1 13 6 0 10 2 10 6 0 2 -6 9 -10 13 -7z m-4385 -16 c-4 -5 -12 -9 -18 -8 -9
0 -8 2 1 6 6 2 9 10 6 15 -4 7 -2 8 5 4 6 -4 9 -12 6 -17z m181 3 c1 -7 0 -8
-3 -2 -2 5 -9 10 -14 10 -6 0 -7 -5 -3 -12 4 -7 3 -8 -5 -4 -14 9 -4 29 12 23
6 -2 12 -9 13 -15z m164 8 c0 -5 -4 -10 -10 -10 -5 0 -10 5 -10 10 0 6 5 10
10 10 6 0 10 -4 10 -10z m146 -18 c-18 -16 -18 -16 -6 6 6 13 14 21 18 18 3
-4 -2 -14 -12 -24z m3344 12 c0 -2 -7 -4 -15 -4 -8 0 -15 4 -15 10 0 5 7 7 15
4 8 -4 15 -8 15 -10z m40 12 c0 -2 -7 -7 -16 -10 -8 -3 -12 -2 -9 4 6 10 25
14 25 6z m125 -17 c-4 -5 -12 -9 -18 -8 -9 0 -8 2 1 6 6 2 9 10 6 15 -4 7 -2
8 5 4 6 -4 9 -12 6 -17z m109 -5 c4 -11 0 -11 -19 2 -30 20 -31 24 -6 17 11
-3 22 -11 25 -19z m156 17 c0 -6 -4 -12 -8 -15 -5 -3 -9 1 -9 9 0 8 4 15 9 15
4 0 8 -4 8 -9z m-4340 -15 c0 -3 -4 -8 -10 -11 -5 -3 -10 -1 -10 4 0 6 5 11
10 11 6 0 10 -2 10 -4z m11 -19 c-10 -9 -11 -8 -5 6 3 10 9 15 12 12 3 -3 0
-11 -7 -18z m169 -12 c0 -5 -5 -3 -10 5 -5 8 -10 20 -10 25 0 6 5 3 10 -5 5
-8 10 -19 10 -25z m20 25 c0 -5 -2 -10 -4 -10 -3 0 -8 5 -11 10 -3 6 -1 10 4
10 6 0 11 -4 11 -10z m400 0 c0 -5 -5 -10 -11 -10 -5 0 -7 5 -4 10 3 6 8 10
11 10 2 0 4 -4 4 -10z m3234 -11 c8 -9 6 -9 -10 -1 -12 6 -24 9 -27 6 -3 -3
-8 -1 -11 5 -9 14 34 5 48 -10z m36 15 c0 -8 -19 -13 -24 -6 -3 5 1 9 9 9 8 0
15 -2 15 -3z m95 -4 c3 -6 -1 -7 -9 -4 -18 7 -21 14 -7 14 6 0 13 -4 16 -10z
m35 6 c0 -3 -4 -8 -10 -11 -5 -3 -10 -1 -10 4 0 6 5 11 10 11 6 0 10 -2 10 -4z
m11 -23 c-12 -20 -14 -14 -5 12 4 9 9 14 11 11 3 -2 0 -13 -6 -23z m97 2 c-3
-3 -9 2 -12 12 -6 14 -5 15 5 6 7 -7 10 -15 7 -18z m23 -2 c-12 -20 -14 -14
-5 12 4 9 9 14 11 11 3 -2 0 -13 -6 -23z m255 0 c-6 -6 -36 9 -36 18 0 5 9 4
20 -3 10 -7 18 -14 16 -15z m49 9 c-3 -3 -11 0 -18 7 -9 10 -8 11 6 5 10 -3
15 -9 12 -12z m-4335 -13 c0 -5 -4 -9 -8 -9 -5 0 -9 7 -9 15 0 8 4 12 9 9 4
-3 8 -9 8 -15z m235 12 c3 -5 0 -13 -6 -17 -8 -5 -9 -3 -4 6 6 10 4 12 -9 7
-10 -4 -15 -3 -11 3 8 13 22 13 30 1z m45 -1 c-8 -5 -19 -10 -25 -10 -5 0 -3
5 5 10 8 5 20 10 25 10 6 0 3 -5 -5 -10z m75 0 c4 -6 -1 -7 -11 -3 -13 5 -15
3 -9 -7 5 -9 4 -11 -4 -6 -6 4 -9 12 -6 17 8 12 22 12 30 -1z m60 1 c3 -5 0
-13 -6 -17 -8 -5 -9 -3 -4 6 6 9 1 10 -16 5 -19 -5 -21 -4 -9 4 19 13 27 14
35 2z m3745 -1 c8 -5 11 -10 5 -10 -5 0 -17 5 -25 10 -8 5 -10 10 -5 10 6 0
17 -5 25 -10z m55 1 c3 -5 0 -13 -6 -17 -8 -5 -9 -3 -4 6 6 10 4 12 -9 7 -10
-4 -15 -3 -11 3 8 13 22 13 30 1z m-4159 -13 c4 -7 3 -8 -4 -4 -7 4 -12 0 -12
-10 0 -10 -3 -15 -6 -11 -7 6 2 37 10 37 3 0 8 -5 12 -12z m79 2 c-3 -5 -1
-10 6 -10 7 0 10 -3 6 -6 -9 -9 -28 6 -22 17 4 5 8 9 11 9 3 0 2 -4 -1 -10z
m58 -5 c4 -8 3 -16 -1 -19 -4 -3 -9 4 -9 15 -2 23 3 25 10 4z m3662 -6 c-4 -5
-12 -9 -18 -8 -9 0 -8 2 1 6 6 2 9 10 6 15 -4 7 -2 8 5 4 6 -4 9 -12 6 -17z
m218 -9 c3 -11 0 -23 -5 -27 -7 -4 -8 -1 -3 7 6 10 4 12 -11 6 -15 -6 -17 -5
-6 5 15 16 16 33 0 23 -7 -4 -8 -3 -4 5 10 15 22 7 29 -19z m44 15 c0 -8 -4
-12 -9 -9 -4 3 -8 9 -8 15 0 5 4 9 8 9 5 0 9 -7 9 -15z m-4216 -10 c5 4 6 -2
2 -11 -4 -11 -8 -13 -11 -6 -2 7 -8 10 -13 7 -5 -4 -6 2 -2 11 4 11 8 13 11 6
2 -7 8 -10 13 -7z m202 2 c3 -8 -1 -14 -8 -14 -7 0 -11 6 -8 14 3 7 6 13 8 13
2 0 5 -6 8 -13z m3784 -9 c-3 -8 -6 -5 -6 6 -1 11 2 17 5 13 3 -3 4 -12 1 -19z
m-4052 2 c-3 -5 -12 -10 -18 -10 -7 0 -6 4 3 10 19 12 23 12 15 0z m182 -4 c0
-8 -6 -12 -15 -9 -11 5 -11 7 0 14 7 5 13 9 14 9 0 0 1 -6 1 -14z m150 -8 c-3
-8 -6 -5 -6 6 -1 11 2 17 5 13 3 -3 4 -12 1 -19z m92 5 c0 -11 -3 -13 -6 -5
-2 6 -10 9 -15 6 -7 -4 -8 -2 -4 4 11 18 26 14 25 -5z m61 13 c0 -3 -4 -8 -10
-11 -5 -3 -10 -1 -10 4 0 6 5 11 10 11 6 0 10 -2 10 -4z m59 -13 c0 -11 -3
-13 -6 -5 -2 6 -10 9 -15 6 -7 -4 -8 -2 -4 4 11 18 26 14 25 -5z m3631 7 c0
-5 -5 -10 -11 -10 -5 0 -7 5 -4 10 3 6 8 10 11 10 2 0 4 -4 4 -10z m176 -2 c4
-6 3 -8 -4 -4 -5 3 -13 0 -15 -6 -3 -8 -6 -6 -6 5 -1 19 14 23 25 5z m54 2 c0
-5 -2 -10 -4 -10 -3 0 -8 5 -11 10 -3 6 -1 10 4 10 6 0 11 -4 11 -10z m95 -10
c4 -6 -1 -7 -11 -3 -11 4 -15 3 -10 -5 3 -6 -2 -15 -12 -21 -14 -7 -19 -6 -19
4 0 7 7 11 14 8 8 -3 13 -2 12 3 -4 24 14 34 26 14z m142 -5 c0 -8 -4 -15 -9
-15 -10 0 -11 14 -1 23 9 10 10 9 10 -8z m-520 -10 c0 -8 -4 -12 -9 -9 -4 3
-8 9 -8 15 0 5 4 9 8 9 5 0 9 -7 9 -15z m-3920 -10 c0 -8 -4 -12 -9 -9 -5 3
-6 10 -3 15 9 13 12 11 12 -6z m4101 3 c-5 -14 -38 -20 -38 -6 0 6 7 8 15 4 8
-3 15 -1 15 4 0 6 3 10 6 10 3 0 4 -5 2 -12z m219 -3 c0 -8 -4 -12 -9 -9 -5 3
-6 10 -3 15 9 13 12 11 12 -6z m-4561 -12 c-2 -9 -8 -18 -15 -19 -6 -1 -7 0
-2 2 6 3 7 12 4 20 -3 8 -1 14 5 14 6 0 9 -8 8 -17z m69 7 c3 -6 -1 -7 -9 -4
-18 7 -21 14 -7 14 6 0 13 -4 16 -10z m95 0 c0 -5 -2 -10 -4 -10 -3 0 -8 5
-11 10 -3 6 -1 10 4 10 6 0 11 -4 11 -10z m120 -5 c0 -1 -6 -7 -13 -13 -10 -8
-13 -6 -13 7 0 11 6 17 13 14 7 -3 13 -6 13 -8z m140 11 c0 -2 -7 -7 -16 -10
-8 -3 -12 -2 -9 4 6 10 25 14 25 6z m74 -12 c3 -8 2 -12 -4 -9 -6 3 -10 10
-10 16 0 14 7 11 14 -7z m46 12 c0 -3 -4 -8 -10 -11 -5 -3 -10 -1 -10 4 0 6 5
11 10 11 6 0 10 -2 10 -4z m3696 -13 c-2 -9 -8 -18 -15 -19 -6 -1 -7 0 -2 2 6
3 7 12 4 20 -3 8 -1 14 5 14 6 0 9 -8 8 -17z m184 13 c0 -2 -7 -7 -16 -10 -8
-3 -12 -2 -9 4 6 10 25 14 25 6z m286 -8 c4 -7 3 -8 -4 -4 -7 4 -12 2 -12 -5
0 -7 -3 -10 -6 -6 -6 5 3 27 11 27 2 0 7 -5 11 -12z m-4667 -25 c-12 -14 -12
-16 2 -11 9 4 16 1 16 -7 0 -10 -6 -11 -16 -6 -9 5 -24 7 -34 6 -9 -2 -15 1
-11 6 3 5 9 7 14 4 4 -3 13 2 20 10 7 8 15 15 17 15 3 0 -1 -8 -8 -17z m78 10
c-4 -3 1 -16 10 -27 10 -12 11 -16 4 -9 -10 9 -20 9 -35 2 -18 -9 -19 -8 -5 3
9 7 14 19 12 26 -3 6 1 12 8 12 7 0 9 -3 6 -7z m95 -17 c3 3 8 1 11 -3 3 -5
-5 -9 -18 -9 -14 0 -22 2 -20 5 3 2 -1 11 -7 20 -10 12 -7 12 8 -2 11 -9 23
-14 26 -11z m101 11 c-4 -7 1 -8 13 -3 15 6 17 5 6 -5 -10 -11 -15 -10 -28 2
-13 14 -13 16 0 16 8 0 12 -5 9 -10z m4047 4 c0 -5 -8 -15 -17 -22 -16 -12
-17 -12 -6 2 7 9 10 19 6 22 -3 4 -1 7 5 7 7 0 12 -4 12 -9z m68 -16 c-3 -3
-9 2 -12 12 -6 14 -5 15 5 6 7 -7 10 -15 7 -18z m236 -1 c3 -8 2 -12 -4 -9 -6
3 -10 10 -10 16 0 14 7 11 14 -7z m-4497 -16 c-3 -8 -6 -5 -6 6 -1 11 2 17 5
13 3 -3 4 -12 1 -19z m128 13 c3 -5 2 -12 -3 -15 -5 -3 -9 1 -9 9 0 17 3 19
12 6z m3980 -1 c3 -5 1 -10 -4 -10 -6 0 -11 5 -11 10 0 6 2 10 4 10 3 0 8 -4
11 -10z m271 -2 c3 -4 -1 -5 -10 -4 -8 1 -18 5 -22 8 -3 4 1 5 10 4 8 -1 18
-5 22 -8z m141 -10 c-3 -8 -6 -5 -6 6 -1 11 2 17 5 13 3 -3 4 -12 1 -19z m33
-3 c14 -19 14 -19 -2 -6 -10 7 -18 18 -18 24 0 6 1 8 3 6 1 -2 9 -13 17 -24z
m-400 11 c0 -2 -8 -10 -17 -17 -16 -13 -17 -12 -4 4 13 16 21 21 21 13z m432
-13 c-1 -4 7 -17 16 -28 17 -20 17 -20 -4 -2 -11 9 -21 24 -21 32 0 8 2 13 5
11 2 -2 4 -8 4 -13z m-312 3 c0 -2 -7 -7 -16 -10 -8 -3 -12 -2 -9 4 6 10 25
14 25 6z m42 -3 c-6 -3 -9 -10 -5 -16 4 -7 -1 -6 -10 2 -21 17 -21 17 6 18 12
0 16 -1 9 -4z m-4478 -24 c-10 -12 -18 -24 -17 -28 1 -3 0 -8 -2 -9 -2 -2 -3
3 -1 11 2 16 25 47 34 47 3 0 -3 -9 -14 -21z m192 6 c-1 -8 -8 -21 -16 -28
-10 -10 -11 -9 -4 3 5 8 9 18 10 23 3 14 4 17 8 17 2 0 3 -7 2 -15z m4358 -14
c-2 -3 -12 3 -22 13 -16 17 -16 18 5 5 12 -7 20 -15 17 -18z m-4473 6 c-6 -8
-7 -18 -3 -22 4 -5 1 -5 -6 -1 -10 6 -10 11 -1 22 6 8 14 14 16 14 3 0 0 -6
-6 -13z m68 -1 c9 -11 9 -16 -1 -22 -7 -4 -10 -4 -6 1 4 4 3 14 -3 22 -6 7 -9
13 -6 13 2 0 10 -6 16 -14z m165 -2 c3 -8 2 -12 -4 -9 -6 3 -10 10 -10 16 0
14 7 11 14 -7z m4137 -1 c13 -16 12 -17 -3 -4 -10 7 -18 15 -18 17 0 8 8 3 21
-13z m59 13 c0 -2 -8 -10 -17 -17 -16 -13 -17 -12 -4 4 13 16 21 21 21 13z
m127 -20 c18 -21 18 -21 -3 -3 -11 9 -23 14 -26 11 -3 -3 -8 -1 -12 4 -11 18
25 8 41 -12z m73 19 c0 -2 -6 -8 -13 -14 -10 -8 -14 -7 -14 2 0 8 6 14 14 14
7 0 13 -1 13 -2z m-4666 -23 c2 -4 -4 -8 -14 -8 -10 0 -16 4 -14 8 3 4 9 8 14
8 5 0 11 -4 14 -8z m80 0 c2 -4 -4 -8 -14 -8 -10 0 -16 4 -14 8 3 4 9 8 14 8
5 0 11 -4 14 -8z m4286 4 c0 -2 -8 -10 -17 -17 -16 -13 -17 -12 -4 4 13 16 21
21 21 13z m341 -13 c13 -16 12 -17 -3 -4 -17 13 -22 21 -14 21 2 0 10 -8 17
-17z m-4814 -8 c0 -8 -4 -12 -9 -9 -5 3 -6 10 -3 15 9 13 12 11 12 -6z m307
-3 c3 -5 -1 -9 -9 -9 -8 0 -12 4 -9 9 3 4 7 8 9 8 2 0 6 -4 9 -8z m4196 -2 c0
-5 -5 -10 -11 -10 -5 0 -7 5 -4 10 3 6 8 10 11 10 2 0 4 -4 4 -10z m-4242 -25
c-3 -3 -9 2 -12 12 -6 14 -5 15 5 6 7 -7 10 -15 7 -18z m4286 7 c2 -4 -4 -8
-14 -8 -10 0 -16 4 -14 8 3 4 9 8 14 8 5 0 11 -4 14 -8z m-4479 -22 c3 -6 -1
-7 -9 -4 -18 7 -21 14 -7 14 6 0 13 -4 16 -10z m175 1 c0 -6 -4 -12 -8 -15 -5
-3 -9 1 -9 9 0 8 4 15 9 15 4 0 8 -4 8 -9z m4465 -1 c3 -6 -1 -7 -9 -4 -18 7
-21 14 -7 14 6 0 13 -4 16 -10z m160 0 c3 -6 -1 -7 -9 -4 -18 7 -21 14 -7 14
6 0 13 -4 16 -10z m-4920 -20 c-3 -5 -12 -10 -18 -10 -7 0 -6 4 3 10 19 12 23
12 15 0z m35 0 c0 -5 -5 -10 -11 -10 -5 0 -7 5 -4 10 3 6 8 10 11 10 2 0 4 -4
4 -10z m4770 5 c0 -2 -6 -8 -13 -14 -10 -8 -14 -7 -14 2 0 8 6 14 14 14 7 0
13 -1 13 -2z m27 -10 c0 -8 -4 -12 -9 -9 -5 3 -6 10 -3 15 9 13 12 11 12 -6z
m-157 -55 c0 -5 -2 -10 -4 -10 -3 0 -8 5 -11 10 -3 6 -1 10 4 10 6 0 11 -4 11
-10z m-4500 -20 c0 -5 -5 -10 -11 -10 -5 0 -7 5 -4 10 3 6 8 10 11 10 2 0 4
-4 4 -10z m35 0 c3 -5 1 -10 -4 -10 -6 0 -11 5 -11 10 0 6 2 10 4 10 3 0 8 -4
11 -10z m45 0 c0 -5 -5 -10 -11 -10 -5 0 -7 5 -4 10 3 6 8 10 11 10 2 0 4 -4
4 -10z m-220 -20 c0 -5 -4 -10 -10 -10 -5 0 -10 5 -10 10 0 6 5 10 10 10 6 0
10 -4 10 -10z m35 1 c3 -5 2 -12 -3 -15 -5 -3 -9 1 -9 9 0 17 3 19 12 6z
m4770 -1 c3 -6 -1 -7 -9 -4 -18 7 -21 14 -7 14 6 0 13 -4 16 -10z m-4665 -20
c0 -5 -2 -10 -4 -10 -3 0 -8 5 -11 10 -3 6 -1 10 4 10 6 0 11 -4 11 -10z
m4475 0 c3 -5 1 -10 -4 -10 -6 0 -11 5 -11 10 0 6 2 10 4 10 3 0 8 -4 11 -10z
m85 0 c0 -5 -5 -10 -11 -10 -5 0 -7 5 -4 10 3 6 8 10 11 10 2 0 4 -4 4 -10z
m-4590 -36 c0 -8 -19 -13 -24 -6 -3 5 1 9 9 9 8 0 15 -2 15 -3z m126 -6 c3 -4
-1 -5 -10 -4 -8 1 -18 5 -22 8 -3 4 1 5 10 4 8 -1 18 -5 22 -8z m4588 4 c3 -5
-1 -9 -9 -9 -8 0 -12 4 -9 9 3 4 7 8 9 8 2 0 6 -4 9 -8z m-183 -19 c13 -16 12
-17 -3 -4 -10 7 -18 15 -18 17 0 8 8 3 21 -13z m80 0 c13 -16 12 -17 -3 -4
-10 7 -18 15 -18 17 0 8 8 3 21 -13z m-4647 -29 c3 -8 2 -12 -4 -9 -6 3 -10
10 -10 16 0 14 7 11 14 -7z m86 -8 c0 -3 -4 -8 -10 -11 -5 -3 -10 -1 -10 4 0
6 5 11 10 11 6 0 10 -2 10 -4z m4471 -59 c-10 -9 -11 -8 -5 6 3 10 9 15 12 12
3 -3 0 -11 -7 -18z"/>
<path d="M4750 1306 c0 -2 7 -9 15 -16 9 -7 15 -8 15 -2 0 5 -7 12 -15 16 -8
3 -15 4 -15 2z"/>
<path d="M2265 1290 c-3 -5 -1 -10 4 -10 6 0 11 5 11 10 0 6 -2 10 -4 10 -3 0
-8 -4 -11 -10z"/>
<path d="M4985 1290 c-3 -5 -1 -10 4 -10 6 0 11 5 11 10 0 6 -2 10 -4 10 -3 0
-8 -4 -11 -10z"/>
<path d="M5225 1290 c-3 -5 -1 -10 4 -10 6 0 11 5 11 10 0 6 -2 10 -4 10 -3 0
-8 -4 -11 -10z"/>
<path d="M5580 1249 c0 -5 5 -7 10 -4 6 3 10 8 10 11 0 2 -4 4 -10 4 -5 0 -10
-5 -10 -11z"/>
<path d="M4246 1570 c2 -20 -2 -33 -15 -42 -15 -11 -17 -17 -8 -28 16 -21 44
-23 44 -5 0 9 -6 14 -13 11 -8 -3 -16 0 -20 6 -5 7 -2 8 6 3 8 -5 11 -4 7 2
-4 6 4 9 18 7 24 -2 32 6 18 19 -3 4 -13 1 -22 -6 -14 -11 -14 -10 -2 5 7 10
18 15 24 11 6 -4 8 0 4 11 -4 10 -3 15 3 11 6 -3 10 -1 10 5 0 7 -6 10 -12 7
-7 -2 -20 -1 -29 4 -13 7 -16 3 -13 -21z"/>
<path d="M2827 1584 c-3 -3 -23 -8 -43 -10 -21 -2 -41 -9 -46 -16 -4 -7 -8 -8
-8 -3 0 6 -19 10 -42 9 -24 -1 -43 -2 -43 -4 0 -1 -11 -4 -25 -6 -14 -2 -41
-6 -60 -9 -19 -3 -47 -6 -62 -6 -16 -1 -28 -6 -28 -11 0 -5 6 -6 13 -3 6 4 5
1 -3 -7 -14 -12 -26 -48 -16 -48 2 0 13 15 25 33 11 17 21 26 21 18 0 -11 3
-11 16 0 21 17 44 20 38 5 -2 -6 5 -12 17 -13 18 -2 19 0 8 15 -8 9 -1 6 14
-7 29 -26 37 -19 12 9 -13 14 -13 17 0 17 8 0 12 -3 10 -7 -2 -3 7 -6 21 -6
25 0 32 10 14 19 -6 3 -5 4 2 3 7 -2 12 -12 11 -23 -1 -12 4 -20 13 -20 9 0
12 7 9 18 -3 9 -1 20 4 24 6 3 8 0 5 -8 -6 -18 34 -16 46 2 4 8 13 11 19 7 6
-4 20 -2 32 5 15 8 19 8 15 0 -4 -6 -3 -11 2 -11 5 0 9 -7 9 -15 0 -8 -4 -12
-8 -9 -4 2 -10 0 -14 -6 -3 -5 -1 -10 5 -10 7 0 9 -7 6 -16 -5 -12 -2 -15 11
-10 15 6 15 4 -2 -14 -22 -24 -26 -25 -19 -5 4 8 2 15 -3 15 -5 0 -9 -9 -10
-21 -1 -15 2 -19 13 -15 9 3 25 1 36 -5 16 -9 19 -8 15 3 -2 7 -10 12 -17 10
-11 -3 -11 0 0 13 10 11 10 19 2 27 -8 8 -4 20 14 43 13 17 22 34 19 37 -3 2
2 5 10 5 11 0 12 -4 4 -14 -7 -8 -8 -13 -1 -13 5 0 15 6 22 14 6 8 19 12 28 9
10 -4 14 -2 9 3 -12 13 -97 12 -96 -1 3 -25 -2 -45 -11 -45 -12 0 -9 22 5 32
6 5 5 8 -3 8 -7 0 -10 5 -7 10 7 11 2 14 -8 4z"/>
<path d="M4301 1564 c-9 -20 -7 -26 11 -38 23 -16 34 -15 23 3 -3 6 -10 9 -15
6 -5 -3 -12 0 -16 6 -4 7 -3 9 4 5 6 -3 15 1 20 10 9 16 11 15 20 -3 6 -11 9
-22 7 -25 -3 -3 8 -5 25 -5 23 0 27 3 19 14 -6 7 -15 11 -19 8 -4 -3 -13 2
-20 10 -9 10 -9 15 -1 15 6 0 11 -6 11 -12 0 -10 2 -10 9 0 6 11 10 10 15 -4
5 -13 10 -14 18 -6 8 8 15 9 25 1 7 -7 13 -8 13 -3 0 5 5 2 10 -6 6 -10 10
-11 10 -2 0 6 5 12 10 12 6 0 9 -5 8 -11 -2 -6 2 -13 8 -16 6 -2 11 3 11 12 0
8 -4 15 -9 15 -5 0 -7 4 -4 9 4 5 -2 8 -11 6 -10 -1 -24 2 -31 8 -9 7 -11 6
-6 -8 7 -16 5 -16 -17 -3 -13 8 -39 14 -56 14 -18 -1 -33 1 -33 4 0 17 -30 4
-39 -16z"/>
<path d="M4171 1572 c3 -19 -2 -33 -10 -28 -5 3 -14 -1 -21 -10 -7 -8 -20 -12
-29 -9 -13 4 -13 3 1 -8 14 -11 15 -16 5 -27 -10 -12 -9 -12 4 -2 12 9 20 8
38 -4 12 -9 25 -14 28 -11 2 3 -7 13 -21 22 -15 10 -23 22 -19 31 3 8 8 12 11
9 3 -3 13 2 23 11 13 12 19 12 25 3 4 -7 3 -10 -3 -6 -6 4 -17 -1 -24 -10 -12
-14 -12 -16 2 -11 9 4 16 1 16 -7 0 -8 -7 -11 -16 -8 -13 5 -13 3 1 -13 13
-13 21 -15 29 -7 8 8 8 13 0 17 -7 5 -8 13 -2 25 11 20 0 44 -23 47 -8 1 -15
-1 -15 -4z"/>
<path d="M2908 1551 c-10 -16 -15 -18 -28 -8 -13 10 -13 10 -2 -5 9 -11 10
-18 2 -23 -6 -3 -7 -11 -4 -17 4 -6 15 4 25 23 10 19 18 27 19 19 0 -13 1 -13
10 0 7 11 10 11 10 2 0 -7 5 -10 12 -6 6 4 8 3 4 -4 -3 -6 -1 -14 5 -18 8 -5
9 -3 4 6 -6 10 -4 12 10 6 14 -5 16 -4 7 7 -7 8 -8 18 -4 22 4 5 1 5 -5 1 -7
-4 -22 -2 -33 4 -16 8 -22 7 -32 -9z"/>
<path d="M4513 1550 c1 -21 17 -28 17 -7 0 9 3 8 9 -2 5 -7 14 -10 20 -7 11 7
15 -5 11 -34 -1 -12 1 -13 11 -2 16 15 29 16 29 2 0 -5 -5 -9 -11 -7 -6 1 -13
-3 -15 -8 -2 -6 5 -11 16 -11 11 0 21 5 22 11 0 5 2 15 3 20 2 6 3 16 4 23 0
7 6 10 12 6 8 -4 7 -9 -2 -15 -12 -7 -11 -9 1 -9 11 0 11 -3 2 -12 -18 -18
-15 -33 3 -18 9 7 14 19 11 27 -3 7 -2 13 2 14 4 0 15 2 25 4 9 2 15 -1 11 -6
-3 -5 -10 -7 -15 -4 -5 4 -9 2 -9 -4 0 -5 -3 -17 -6 -26 -4 -9 -3 -15 2 -14
24 4 36 -2 30 -17 -4 -9 -1 -14 6 -12 12 4 23 49 10 47 -4 -1 -14 -1 -22 0
-11 1 -10 5 5 13 24 14 56 18 49 6 -3 -5 2 -19 13 -31 l18 -22 -24 20 c-22 18
-24 18 -18 2 5 -12 3 -16 -5 -11 -7 4 -8 3 -4 -4 6 -10 17 -10 55 -3 2 1 -4
12 -13 26 -9 14 -12 25 -7 25 5 0 12 -6 14 -12 4 -10 6 -10 6 0 1 6 9 12 19
12 14 0 15 -2 2 -10 -8 -5 -10 -10 -4 -10 5 0 15 5 22 12 9 9 12 9 12 1 0 -7
9 -10 19 -8 13 2 18 -1 15 -9 -2 -6 7 -22 21 -34 14 -12 25 -30 25 -39 0 -14
3 -14 12 -5 10 10 10 15 0 21 -11 7 -10 9 2 14 9 4 16 11 16 17 0 7 -6 8 -19
0 -17 -9 -19 -7 -15 15 2 14 1 25 -3 26 -5 0 -15 2 -23 4 -52 10 -99 18 -122
19 -16 0 -28 4 -28 7 0 3 -16 5 -35 4 -19 -1 -35 1 -35 5 0 13 -35 7 -47 -9
-10 -13 -14 -14 -25 -3 -11 11 -10 12 5 7 10 -4 17 -2 17 4 0 6 -6 11 -12 12
-50 4 -66 7 -76 13 -7 4 -10 -1 -9 -14z m374 -69 c0 -11 -5 -18 -9 -15 -4 3
-5 11 -1 19 7 21 12 19 10 -4z"/>
<path d="M2754 1536 c-4 -11 -13 -15 -28 -11 -17 5 -18 4 -6 -4 13 -10 13 -11
0 -12 -8 0 -23 -2 -33 -4 -10 -2 -20 2 -23 9 -3 7 -11 13 -19 13 -8 0 -12 -4
-9 -9 10 -16 -7 -30 -22 -17 -11 9 -14 9 -14 -1 0 -9 -3 -10 -13 -1 -8 6 -17
8 -20 4 -4 -3 -9 2 -13 11 -5 13 -9 14 -20 5 -21 -17 -17 -34 4 -18 15 13 16
12 4 -3 -12 -15 -11 -17 7 -15 12 1 21 5 21 10 0 5 7 4 15 -3 8 -6 19 -9 25
-5 5 3 10 0 10 -7 1 -7 9 -3 20 10 11 13 21 18 25 12 3 -6 11 -8 16 -5 5 4 12
0 15 -8 2 -7 11 -14 19 -14 16 0 20 12 8 20 -5 2 -2 2 5 1 6 -2 12 1 12 6 0 5
10 14 23 20 21 11 21 10 3 -4 -11 -9 -16 -19 -13 -23 4 -3 18 4 32 17 26 25
32 40 14 40 -5 0 -7 -4 -4 -10 9 -14 -8 -13 -23 2 -9 9 -13 7 -18 -6z"/>
<path d="M4419 1548 c-1 -5 -3 -12 -4 -18 -1 -5 -3 -15 -4 -21 -1 -8 -5 -8
-15 0 -9 8 -21 8 -39 2 -14 -5 -28 -7 -31 -4 -12 13 -53 10 -53 -3 0 -17 14
-18 20 -1 4 9 6 9 6 0 1 -7 7 -11 14 -9 6 1 9 1 5 -1 -5 -3 -8 -9 -8 -14 0
-13 23 -6 37 11 7 8 13 11 13 5 0 -5 5 -3 10 5 9 13 11 13 19 0 8 -12 13 -12
30 4 16 14 24 16 34 7 8 -6 17 -8 21 -4 4 4 11 1 17 -7 8 -13 10 -13 20 0 9
13 10 13 6 -2 -3 -9 1 -19 9 -22 24 -9 27 -7 15 8 -6 7 -8 21 -5 31 6 15 4 16
-15 6 -12 -7 -27 -8 -34 -4 -6 4 -21 9 -32 10 -10 2 -23 9 -27 16 -4 6 -8 9
-9 5z"/>
<path d="M2386 1523 c-3 -4 -14 -8 -24 -9 -9 -1 -30 -5 -47 -9 -16 -4 -40 -7
-52 -8 -12 -1 -19 -5 -17 -9 3 -4 -5 -7 -18 -5 -26 2 -33 -24 -8 -30 13 -4 13
-3 0 6 -9 7 -10 11 -3 11 6 0 15 -5 19 -11 5 -8 10 -6 18 7 6 11 19 20 28 20
10 1 15 -2 12 -7 -3 -5 -12 -9 -21 -9 -39 0 3 -14 45 -15 61 -2 66 2 47 31 -8
13 -11 24 -6 24 5 0 11 -4 13 -8 2 -4 11 0 21 10 9 10 13 18 9 18 -5 0 -12 -3
-16 -7z m-28 -48 c16 -18 15 -18 -7 0 -18 15 -23 16 -19 5 4 -10 0 -16 -11
-16 -9 0 -17 7 -17 16 0 22 32 19 54 -5z"/>
<path d="M2420 1520 c0 -5 -6 -10 -14 -10 -16 0 -28 -24 -20 -43 6 -16 34 -18
52 -4 9 8 12 7 10 -3 -2 -7 3 -15 10 -17 11 -4 12 -1 3 14 -5 11 -8 32 -5 47
3 21 1 26 -16 26 -11 0 -20 -4 -20 -10z m23 -7 c-7 -2 -13 -9 -13 -14 0 -6 6
-7 13 -3 6 4 5 -1 -4 -10 -9 -10 -22 -14 -32 -10 -15 5 -14 8 6 25 12 10 27
18 32 18 6 0 4 -3 -2 -6z"/>
<path d="M2905 1513 c-8 -21 -7 -23 13 -23 9 0 23 -9 30 -20 7 -12 17 -18 23
-15 5 4 -1 15 -15 26 -14 11 -23 26 -20 33 3 7 -2 13 -10 13 -8 0 -18 -7 -21
-14z"/>
<path d="M4545 1510 c-4 -6 -2 -17 5 -25 20 -24 -8 -28 -45 -6 -31 18 -47 16
-27 -3 4 -4 7 -13 7 -18 0 -6 6 -13 13 -16 8 -2 10 3 6 15 -5 15 -4 15 5 3 6
-8 11 -10 11 -5 0 6 7 2 14 -7 11 -15 15 -16 31 -4 18 13 18 15 2 39 -12 19
-13 27 -4 30 9 4 9 6 0 6 -6 1 -15 -4 -18 -9z"/>
<path d="M2500 1510 c-1 -3 -4 -18 -6 -33 -2 -24 -1 -27 12 -16 27 22 20 4 -9
-26 -16 -16 -26 -23 -21 -15 12 20 12 60 1 53 -4 -3 -6 -11 -3 -18 3 -8 -1
-19 -9 -25 -11 -9 -12 -15 -2 -25 10 -12 16 -10 34 13 l22 26 26 -24 c14 -13
25 -18 25 -12 0 6 -9 17 -21 25 -11 8 -16 18 -11 21 6 3 12 -1 16 -9 3 -8 11
-12 19 -9 8 3 20 -2 27 -11 7 -8 18 -15 24 -15 6 0 -2 12 -17 25 -16 14 -32
23 -37 20 -5 -3 -11 -1 -15 4 -6 10 16 8 48 -4 10 -4 17 -3 17 4 0 6 -8 12
-17 13 -10 0 -29 2 -43 3 -45 4 -48 5 -53 23 -3 9 -6 15 -7 12z"/>
<path d="M2780 1494 c-7 -8 -19 -13 -26 -10 -16 6 -27 -21 -16 -40 7 -13 12
-12 33 5 17 14 20 21 9 21 -9 0 -6 6 9 14 13 7 19 16 13 19 -5 4 -15 0 -22 -9z
m-10 -28 c0 -3 -4 -8 -10 -11 -5 -3 -10 -1 -10 4 0 6 5 11 10 11 6 0 10 -2 10
-4z"/>
<path d="M4421 1496 c-7 -9 -24 -13 -41 -11 -22 2 -30 -2 -39 -22 -9 -19 -9
-24 1 -20 7 2 12 11 10 18 -2 8 0 11 4 7 4 -4 14 -2 23 5 14 10 14 10 3 -5
-12 -15 -11 -17 7 -15 12 1 23 9 26 18 3 9 11 16 18 15 14 -1 23 17 9 22 -5 1
-15 -4 -21 -12z"/>
<path d="M4706 1502 c-3 -5 1 -9 9 -9 8 0 12 4 9 9 -3 4 -7 8 -9 8 -2 0 -6 -4
-9 -8z"/>
<path d="M2181 1483 c-1 -6 -10 -10 -21 -8 -12 2 -18 0 -15 -6 4 -5 11 -6 17
-3 7 4 8 2 4 -4 -5 -8 -13 -9 -24 -3 -9 4 -26 6 -37 4 -11 -2 -26 -5 -32 -5
-16 -2 -17 -14 -3 -23 6 -4 8 -10 5 -15 -3 -5 0 -12 6 -16 8 -5 10 1 7 19 -4
19 -1 24 10 19 11 -4 13 -1 7 8 -5 9 -4 11 4 6 9 -6 9 -11 0 -22 -9 -11 -8
-19 6 -34 24 -26 32 -25 30 3 -2 13 8 30 23 43 14 12 22 27 19 35 -3 8 -6 9
-6 2z m-50 -64 c-9 -23 -9 -22 -8 8 1 18 6 28 10 24 4 -4 3 -18 -2 -32z"/>
<path d="M2634 1465 c-19 -30 -12 -43 20 -40 18 2 23 -1 19 -11 -3 -8 0 -14 6
-14 6 0 11 9 11 19 0 10 7 21 15 25 8 3 15 11 15 18 0 10 -2 10 -9 -1 -7 -11
-10 -10 -15 6 -9 27 -44 26 -62 -2z m48 0 c2 3 5 -1 5 -8 0 -8 -12 -13 -28
-13 -15 0 -26 3 -23 7 2 5 12 5 22 2 15 -6 16 -5 2 13 -14 17 -13 18 1 7 9 -7
18 -11 21 -8z"/>
<path d="M4279 1480 c-9 -5 -26 -7 -39 -5 -23 4 -66 -12 -56 -22 3 -3 12 0 21
7 8 7 15 8 15 4 0 -5 -9 -15 -20 -22 -12 -7 -18 -17 -15 -22 9 -14 25 -12 23
3 -2 6 5 11 15 10 12 0 16 4 13 13 -3 7 0 16 6 20 7 5 8 2 3 -6 -5 -7 -4 -11
1 -7 13 7 45 -18 42 -33 -2 -7 2 -14 8 -16 6 -3 10 11 9 36 -2 47 -5 51 -26
40z m11 -20 c0 -5 -2 -10 -4 -10 -3 0 -8 5 -11 10 -3 6 -1 10 4 10 6 0 11 -4
11 -10z"/>
<path d="M4785 1472 c3 -8 5 -16 5 -19 0 -4 9 2 20 12 20 18 21 18 14 -1 -7
-17 -6 -17 9 -5 26 20 21 27 -18 27 -25 -1 -34 -5 -30 -14z"/>
<path d="M4147 1474 c-12 -12 -8 -23 13 -34 23 -12 26 -2 7 24 -7 9 -16 14
-20 10z"/>
<path d="M4440 1473 c-8 -3 -18 -12 -23 -19 -4 -7 -19 -11 -33 -9 -18 2 -28
-3 -31 -14 -2 -9 -17 -24 -33 -33 -27 -15 -29 -15 -36 0 -4 10 -8 19 -8 22 -1
3 -5 11 -10 19 -7 11 -10 11 -18 -2 -5 -10 -15 -14 -26 -10 -9 3 -14 3 -10 -2
4 -4 3 -14 -3 -21 -9 -11 -15 -9 -29 9 -10 12 -21 19 -25 15 -9 -8 26 -48 43
-48 7 0 15 7 18 15 5 13 9 13 22 3 13 -11 15 -10 9 4 -3 10 -1 20 6 24 7 4 9
3 4 -1 -4 -5 0 -17 10 -27 15 -17 15 -19 -1 -37 -12 -13 -14 -21 -6 -26 13 -8
70 13 70 27 0 5 -4 6 -10 3 -5 -3 -10 -2 -10 3 0 5 12 14 28 21 15 7 24 10 20
6 -4 -4 4 -16 17 -27 25 -19 25 -19 50 0 13 11 21 23 17 27 -4 4 4 2 17 -5 21
-11 26 -10 37 4 9 12 14 14 19 6 5 -7 10 -8 14 -3 3 5 15 15 26 22 14 9 15 11
3 7 -10 -3 -21 2 -26 10 -7 13 -13 10 -36 -17 -14 -19 -24 -27 -21 -19 5 13
-4 15 -55 14 -33 -1 -60 2 -60 6 0 5 11 7 25 5 14 -1 29 3 33 10 4 7 18 18 32
24 22 11 21 10 -5 -13 -16 -14 -25 -25 -19 -26 5 0 15 5 22 12 8 8 15 8 27 -2
15 -12 22 0 8 14 -5 4 -8 13 -8 19 0 13 -15 17 -35 10z m-46 -85 c5 -10 7 -10
12 0 3 6 11 12 17 12 6 0 4 -8 -6 -17 -16 -16 -18 -16 -34 0 -10 9 -12 17 -6
17 6 0 14 -6 17 -12z m-94 -27 c0 -5 -7 -12 -16 -15 -14 -5 -15 -4 -4 9 14 17
20 19 20 6z"/>
<path d="M4319 1463 c-6 -33 -5 -53 2 -53 13 0 20 18 10 25 -6 3 -8 12 -4 20
3 8 2 15 -1 15 -3 0 -7 -3 -7 -7z"/>
<path d="M4590 1454 c0 -8 5 -12 10 -9 6 3 10 10 10 16 0 5 -4 9 -10 9 -5 0
-10 -7 -10 -16z"/>
<path d="M4616 1454 c-8 -22 -9 -22 19 -40 29 -19 53 -10 34 12 -10 12 -9 17
1 27 10 9 11 9 6 -1 -8 -14 10 -42 27 -42 5 0 2 9 -9 21 -10 12 -17 24 -14 27
3 3 -5 7 -17 8 -17 3 -21 -1 -18 -16 2 -11 7 -26 11 -33 5 -8 2 -7 -10 2 -9 8
-15 20 -12 27 3 7 1 16 -3 19 -5 3 -12 -2 -15 -11z"/>
<path d="M4935 1416 c0 -14 5 -30 11 -36 9 -9 11 -3 10 21 -2 38 -22 52 -21
15z"/>
<path d="M5165 1432 c-15 -11 -17 -42 -3 -43 7 0 21 -2 31 -4 14 -3 17 1 13
13 -5 14 -3 13 8 -2 16 -19 46 -16 46 5 0 8 4 8 15 -1 10 -9 15 -9 15 -1 0 6
-3 11 -7 12 -10 1 -32 6 -60 15 -16 4 -25 1 -29 -10 -8 -20 -21 -21 -21 -1 0
8 4 12 9 9 4 -3 8 0 8 5 0 13 -11 14 -25 3z m85 -27 c0 -12 -19 -12 -23 0 -4
9 -1 12 9 8 7 -3 14 -7 14 -8z"/>
<path d="M2930 1420 c0 -5 5 -10 10 -10 6 0 10 5 10 10 0 6 -4 10 -10 10 -5 0
-10 -4 -10 -10z"/>
<path d="M4850 1420 c0 -5 5 -10 10 -10 6 0 10 5 10 10 0 6 -4 10 -10 10 -5 0
-10 -4 -10 -10z"/>
<path d="M2625 1400 c-10 -11 -14 -20 -8 -20 5 0 18 9 28 20 10 11 14 20 8 20
-5 0 -18 -9 -28 -20z"/>
<path d="M3015 1366 c-15 -20 -31 -33 -36 -30 -5 3 -9 0 -9 -7 0 -7 -3 -9 -6
-6 -6 6 -44 -29 -44 -40 0 -1 14 -3 30 -3 17 0 30 4 30 9 0 5 -10 7 -22 5 -21
-4 -21 -4 1 6 14 6 32 16 40 23 10 8 13 9 8 0 -4 -6 -4 -13 0 -16 5 -2 2 -2
-4 -1 -7 2 -13 -3 -13 -11 0 -9 6 -12 18 -8 30 11 31 13 20 38 -9 21 -8 29 7
45 10 11 16 23 13 26 -3 3 -18 -11 -33 -30z"/>
<path d="M1790 1370 c0 -5 5 -10 10 -10 6 0 10 5 10 10 0 6 -4 10 -10 10 -5 0
-10 -4 -10 -10z"/>
<path d="M4814 1365 c-4 -8 -10 -12 -15 -9 -5 3 -9 -2 -9 -10 0 -8 5 -18 10
-21 6 -3 10 -2 10 3 0 4 9 18 20 30 17 18 18 22 5 22 -9 0 -18 -7 -21 -15z"/>
<path d="M2070 1341 c0 -6 5 -13 10 -16 6 -3 10 1 10 9 0 9 -4 16 -10 16 -5 0
-10 -4 -10 -9z"/>
<path d="M5508 1328 c13 -6 21 -17 18 -24 -3 -8 -1 -16 3 -19 5 -2 11 4 14 16
4 15 -1 23 -19 30 -34 12 -45 10 -16 -3z"/>
<path d="M1620 1309 c0 -5 -4 -7 -10 -4 -5 3 -10 2 -10 -3 0 -6 7 -12 15 -16
8 -3 15 -9 14 -13 -4 -23 3 -25 17 -5 12 18 13 26 4 37 -15 17 -30 20 -30 4z
m24 -15 c3 -8 2 -12 -4 -9 -6 3 -10 10 -10 16 0 14 7 11 14 -7z"/>
<path d="M2510 1306 c0 -2 7 -9 15 -16 9 -7 15 -8 15 -2 0 5 -7 12 -15 16 -8
3 -15 4 -15 2z"/>
<path d="M2265 1230 c3 -5 -5 -15 -19 -21 -14 -7 -22 -17 -19 -25 3 -8 9 -11
14 -8 10 6 52 14 82 17 25 2 21 15 -5 19 -13 2 -22 9 -20 16 1 6 -7 12 -19 12
-11 0 -17 -4 -14 -10z m25 -24 c0 -3 -4 -8 -10 -11 -5 -3 -10 -1 -10 4 0 6 5
11 10 11 6 0 10 -2 10 -4z"/>
</g>
</svg>
