<svg width="401" height="80" viewBox="0 0 401 80" fill="none" xmlns="http://www.w3.org/2000/svg">
<path d="M100.04 56H83.6V27.44H100.04V32.4H89.64V38.68H99.32V43.64H89.64V51H100.04V56Z" fill="#1B1B1B"/>
<path d="M116.983 56H110.943V32.48H103.183V27.44H124.743V32.48H116.983V56Z" fill="#1B1B1B"/>
<path d="M140.486 32.08C139.339 32.08 138.312 32.3066 137.406 32.76C136.526 33.2133 135.779 33.8666 135.166 34.72C134.552 35.5466 134.086 36.56 133.766 37.76C133.472 38.96 133.326 40.3066 133.326 41.8C133.326 43.8266 133.566 45.56 134.046 47C134.552 48.4133 135.339 49.4933 136.406 50.24C137.472 50.9866 138.832 51.36 140.486 51.36C141.659 51.36 142.819 51.2266 143.966 50.96C145.139 50.6933 146.406 50.32 147.766 49.84V54.92C146.512 55.4266 145.272 55.8 144.046 56.04C142.819 56.28 141.446 56.4 139.926 56.4C136.992 56.4 134.566 55.8 132.646 54.6C130.752 53.3733 129.352 51.6666 128.446 49.48C127.539 47.2666 127.086 44.6933 127.086 41.76C127.086 39.6 127.379 37.6266 127.966 35.84C128.552 34.0266 129.406 32.4666 130.526 31.16C131.672 29.8533 133.072 28.84 134.726 28.12C136.406 27.4 138.326 27.04 140.486 27.04C141.899 27.04 143.312 27.2266 144.726 27.6C146.166 27.9466 147.539 28.4266 148.846 29.04L146.886 33.96C145.819 33.4533 144.739 33.0133 143.646 32.64C142.579 32.2666 141.526 32.08 140.486 32.08Z" fill="#1B1B1B"/>
<path d="M176.345 32.08C175.198 32.08 174.172 32.3066 173.265 32.76C172.385 33.2133 171.638 33.8666 171.025 34.72C170.412 35.5466 169.945 36.56 169.625 37.76C169.332 38.96 169.185 40.3066 169.185 41.8C169.185 43.8266 169.425 45.56 169.905 47C170.412 48.4133 171.198 49.4933 172.265 50.24C173.332 50.9866 174.692 51.36 176.345 51.36C177.518 51.36 178.678 51.2266 179.825 50.96C180.998 50.6933 182.265 50.32 183.625 49.84V54.92C182.372 55.4266 181.132 55.8 179.905 56.04C178.678 56.28 177.305 56.4 175.785 56.4C172.852 56.4 170.425 55.8 168.505 54.6C166.612 53.3733 165.212 51.6666 164.305 49.48C163.398 47.2666 162.945 44.6933 162.945 41.76C162.945 39.6 163.238 37.6266 163.825 35.84C164.412 34.0266 165.265 32.4666 166.385 31.16C167.532 29.8533 168.932 28.84 170.585 28.12C172.265 27.4 174.185 27.04 176.345 27.04C177.758 27.04 179.172 27.2266 180.585 27.6C182.025 27.9466 183.398 28.4266 184.705 29.04L182.745 33.96C181.678 33.4533 180.598 33.0133 179.505 32.64C178.438 32.2666 177.385 32.08 176.345 32.08Z" fill="#1B1B1B"/>
<path d="M209.054 45.04C209.054 46.8533 208.8 48.4666 208.294 49.88C207.814 51.2933 207.107 52.4933 206.174 53.48C205.267 54.44 204.16 55.1733 202.854 55.68C201.547 56.16 200.067 56.4 198.414 56.4C196.894 56.4 195.48 56.16 194.174 55.68C192.894 55.1733 191.787 54.44 190.854 53.48C189.92 52.4933 189.187 51.2933 188.654 49.88C188.147 48.4666 187.894 46.8533 187.894 45.04C187.894 42.6133 188.32 40.5733 189.174 38.92C190.027 37.24 191.254 35.96 192.854 35.08C194.454 34.2 196.347 33.76 198.534 33.76C200.587 33.76 202.4 34.2 203.974 35.08C205.547 35.96 206.787 37.24 207.694 38.92C208.6 40.5733 209.054 42.6133 209.054 45.04ZM193.974 45.04C193.974 46.48 194.12 47.6933 194.414 48.68C194.734 49.64 195.227 50.3733 195.894 50.88C196.56 51.36 197.427 51.6 198.494 51.6C199.56 51.6 200.414 51.36 201.054 50.88C201.72 50.3733 202.2 49.64 202.494 48.68C202.814 47.6933 202.974 46.48 202.974 45.04C202.974 43.6 202.814 42.4 202.494 41.44C202.2 40.48 201.72 39.76 201.054 39.28C200.387 38.8 199.52 38.56 198.454 38.56C196.88 38.56 195.734 39.1066 195.014 40.2C194.32 41.2666 193.974 42.88 193.974 45.04Z" fill="#1B1B1B"/>
<path d="M233.819 45.04C233.819 46.8533 233.566 48.4666 233.059 49.88C232.579 51.2933 231.873 52.4933 230.939 53.48C230.033 54.44 228.926 55.1733 227.619 55.68C226.313 56.16 224.833 56.4 223.179 56.4C221.659 56.4 220.246 56.16 218.939 55.68C217.659 55.1733 216.553 54.44 215.619 53.48C214.686 52.4933 213.953 51.2933 213.419 49.88C212.913 48.4666 212.659 46.8533 212.659 45.04C212.659 42.6133 213.086 40.5733 213.939 38.92C214.793 37.24 216.019 35.96 217.619 35.08C219.219 34.2 221.113 33.76 223.299 33.76C225.353 33.76 227.166 34.2 228.739 35.08C230.313 35.96 231.553 37.24 232.459 38.92C233.366 40.5733 233.819 42.6133 233.819 45.04ZM218.739 45.04C218.739 46.48 218.886 47.6933 219.179 48.68C219.499 49.64 219.993 50.3733 220.659 50.88C221.326 51.36 222.193 51.6 223.259 51.6C224.326 51.6 225.179 51.36 225.819 50.88C226.486 50.3733 226.966 49.64 227.259 48.68C227.579 47.6933 227.739 46.48 227.739 45.04C227.739 43.6 227.579 42.4 227.259 41.44C226.966 40.48 226.486 39.76 225.819 39.28C225.153 38.8 224.286 38.56 223.219 38.56C221.646 38.56 220.499 39.1066 219.779 40.2C219.086 41.2666 218.739 42.88 218.739 45.04Z" fill="#1B1B1B"/>
<path d="M250.905 33.76C253.358 33.76 255.345 34.72 256.865 36.64C258.385 38.5333 259.145 41.3333 259.145 45.04C259.145 47.52 258.785 49.6133 258.065 51.32C257.345 53 256.358 54.2666 255.105 55.12C253.852 55.9733 252.398 56.4 250.745 56.4C249.705 56.4 248.798 56.2666 248.025 56C247.278 55.7333 246.638 55.3866 246.105 54.96C245.572 54.5333 245.105 54.08 244.705 53.6H244.385C244.492 54.1066 244.572 54.64 244.625 55.2C244.678 55.7333 244.705 56.2666 244.705 56.8V65.6H238.745V34.16H243.585L244.425 37H244.705C245.105 36.4133 245.585 35.88 246.145 35.4C246.705 34.8933 247.372 34.4933 248.145 34.2C248.945 33.9066 249.865 33.76 250.905 33.76ZM248.985 38.52C247.945 38.52 247.118 38.7333 246.505 39.16C245.892 39.5866 245.438 40.24 245.145 41.12C244.878 41.9733 244.732 43.0533 244.705 44.36V45C244.705 46.4133 244.838 47.6133 245.105 48.6C245.372 49.56 245.825 50.2933 246.465 50.8C247.105 51.3066 247.972 51.56 249.065 51.56C249.972 51.56 250.718 51.3066 251.305 50.8C251.892 50.2933 252.332 49.5466 252.625 48.56C252.918 47.5733 253.065 46.3733 253.065 44.96C253.065 42.8266 252.732 41.2266 252.065 40.16C251.425 39.0666 250.398 38.52 248.985 38.52Z" fill="#1B1B1B"/>
<path d="M273.058 33.76C275.084 33.76 276.818 34.1466 278.258 34.92C279.724 35.6933 280.858 36.8133 281.658 38.28C282.458 39.7466 282.858 41.5466 282.858 43.68V46.56H268.778C268.831 48.24 269.324 49.56 270.258 50.52C271.218 51.48 272.538 51.96 274.218 51.96C275.631 51.96 276.911 51.8266 278.058 51.56C279.204 51.2666 280.391 50.8266 281.618 50.24V54.84C280.551 55.3733 279.417 55.76 278.217 56C277.044 56.2666 275.617 56.4 273.938 56.4C271.751 56.4 269.818 56 268.138 55.2C266.458 54.3733 265.138 53.1333 264.178 51.48C263.218 49.8266 262.738 47.7466 262.738 45.24C262.738 42.68 263.164 40.56 264.018 38.88C264.898 37.1733 266.111 35.8933 267.658 35.04C269.204 34.1866 271.004 33.76 273.058 33.76ZM273.098 38C271.951 38 270.991 38.3733 270.217 39.12C269.471 39.8666 269.031 41.0266 268.898 42.6H277.258C277.258 41.72 277.098 40.9333 276.778 40.24C276.484 39.5466 276.031 39 275.418 38.6C274.804 38.2 274.031 38 273.098 38Z" fill="#1B1B1B"/>
<path d="M299.89 33.76C300.184 33.76 300.53 33.7733 300.93 33.8C301.33 33.8266 301.65 33.8666 301.89 33.92L301.45 39.52C301.264 39.4666 300.984 39.4266 300.61 39.4C300.264 39.3466 299.957 39.32 299.69 39.32C298.917 39.32 298.17 39.4266 297.45 39.64C296.73 39.8266 296.077 40.1333 295.49 40.56C294.93 40.9866 294.477 41.56 294.13 42.28C293.81 42.9733 293.65 43.84 293.65 44.88V56H287.69V34.16H292.21L293.09 37.84H293.37C293.797 37.0933 294.33 36.4133 294.97 35.8C295.61 35.1866 296.344 34.6933 297.17 34.32C298.024 33.9466 298.93 33.76 299.89 33.76Z" fill="#1B1B1B"/>
<path d="M314.033 33.72C316.966 33.72 319.206 34.36 320.753 35.64C322.326 36.8933 323.113 38.8266 323.113 41.44V56H318.953L317.793 53.04H317.633C317.02 53.8133 316.38 54.4533 315.713 54.96C315.073 55.4666 314.326 55.8266 313.473 56.04C312.646 56.28 311.62 56.4 310.393 56.4C309.113 56.4 307.953 56.16 306.913 55.68C305.9 55.1733 305.1 54.4133 304.513 53.4C303.926 52.36 303.633 51.0533 303.633 49.48C303.633 47.16 304.446 45.4533 306.073 44.36C307.7 43.24 310.14 42.6266 313.393 42.52L317.193 42.4V41.44C317.193 40.2933 316.886 39.4533 316.273 38.92C315.686 38.3866 314.86 38.12 313.793 38.12C312.726 38.12 311.686 38.28 310.673 38.6C309.66 38.8933 308.646 39.2666 307.633 39.72L305.673 35.68C306.846 35.0666 308.14 34.5866 309.553 34.24C310.993 33.8933 312.486 33.72 314.033 33.72ZM314.873 45.96C312.953 46.0133 311.62 46.36 310.873 47C310.126 47.64 309.753 48.48 309.753 49.52C309.753 50.4266 310.02 51.08 310.553 51.48C311.086 51.8533 311.78 52.04 312.633 52.04C313.913 52.04 314.993 51.6666 315.873 50.92C316.753 50.1466 317.193 49.0666 317.193 47.68V45.88L314.873 45.96Z" fill="#1B1B1B"/>
<path d="M338.414 51.64C339.08 51.64 339.72 51.5733 340.334 51.44C340.947 51.3066 341.56 51.1466 342.174 50.96V55.4C341.534 55.6666 340.734 55.8933 339.774 56.08C338.84 56.2933 337.814 56.4 336.694 56.4C335.387 56.4 334.214 56.1866 333.174 55.76C332.16 55.3333 331.347 54.6 330.734 53.56C330.147 52.4933 329.854 51.0266 329.854 49.16V38.64H327.014V36.12L330.294 34.12L332.014 29.52H335.814V34.16H341.934V38.64H335.814V49.16C335.814 49.9866 336.054 50.6133 336.534 51.04C337.014 51.44 337.64 51.64 338.414 51.64Z" fill="#1B1B1B"/>
<path d="M352.518 34.16V56H346.557V34.16H352.518ZM349.557 25.6C350.437 25.6 351.197 25.8133 351.837 26.24C352.477 26.64 352.798 27.4 352.798 28.52C352.798 29.6133 352.477 30.3733 351.837 30.8C351.197 31.2266 350.437 31.44 349.557 31.44C348.651 31.44 347.878 31.2266 347.238 30.8C346.624 30.3733 346.318 29.6133 346.318 28.52C346.318 27.4 346.624 26.64 347.238 26.24C347.878 25.8133 348.651 25.6 349.557 25.6Z" fill="#1B1B1B"/>
<path d="M363.945 56L355.625 34.16H361.865L366.065 46.6C366.225 47.08 366.358 47.5866 366.465 48.12C366.598 48.6533 366.692 49.1733 366.745 49.68C366.825 50.1866 366.878 50.6533 366.905 51.08H367.065C367.092 50.6266 367.145 50.1466 367.225 49.64C367.305 49.1333 367.398 48.6266 367.505 48.12C367.638 47.5866 367.785 47.08 367.945 46.6L372.145 34.16H378.385L370.065 56H363.945Z" fill="#1B1B1B"/>
<path d="M390.518 33.76C392.545 33.76 394.278 34.1466 395.718 34.92C397.185 35.6933 398.318 36.8133 399.118 38.28C399.918 39.7466 400.318 41.5466 400.318 43.68V46.56H386.238C386.292 48.24 386.785 49.56 387.718 50.52C388.678 51.48 389.998 51.96 391.678 51.96C393.092 51.96 394.372 51.8266 395.518 51.56C396.665 51.2666 397.852 50.8266 399.078 50.24V54.84C398.012 55.3733 396.878 55.76 395.678 56C394.505 56.2666 393.078 56.4 391.398 56.4C389.212 56.4 387.278 56 385.598 55.2C383.918 54.3733 382.598 53.1333 381.638 51.48C380.678 49.8266 380.198 47.7466 380.198 45.24C380.198 42.68 380.625 40.56 381.478 38.88C382.358 37.1733 383.572 35.8933 385.118 35.04C386.665 34.1866 388.465 33.76 390.518 33.76ZM390.558 38C389.412 38 388.452 38.3733 387.678 39.12C386.932 39.8666 386.492 41.0266 386.358 42.6H394.718C394.718 41.72 394.558 40.9333 394.238 40.24C393.945 39.5466 393.492 39 392.878 38.6C392.265 38.2 391.492 38 390.558 38Z" fill="#1B1B1B"/>
<path fill-rule="evenodd" clip-rule="evenodd" d="M52.5219 70.8348C52.5223 70.8349 52.5209 70.8397 52.5167 70.8493C52.5194 70.8396 52.5215 70.8348 52.5219 70.8348ZM52.4224 70.9999C52.3163 70.8584 52.1043 70.6278 51.6932 70.3154C50.7139 69.5712 49.0752 68.7506 46.7361 67.9987C42.098 66.5079 35.4732 65.5294 28 65.5294C20.5268 65.5294 13.902 66.5079 9.26394 67.9987C6.92482 68.7506 5.28605 69.5712 4.30683 70.3154C3.89573 70.6278 3.6837 70.8584 3.57755 70.9999C3.6837 71.1415 3.89573 71.3721 4.30683 71.6845C5.28605 72.4287 6.92482 73.2493 9.26394 74.0012C13.902 75.492 20.5268 76.4705 28 76.4705C35.4732 76.4705 42.098 75.492 46.7361 74.0012C49.0752 73.2493 50.7139 72.4287 51.6932 71.6845C52.1043 71.3721 52.3163 71.1415 52.4224 70.9999ZM3.4781 70.8348C3.47846 70.8348 3.48055 70.8396 3.48331 70.8493C3.47913 70.8397 3.47775 70.8349 3.4781 70.8348ZM3.4781 71.1651C3.47775 71.165 3.47913 71.1602 3.48331 71.1506C3.48055 71.1603 3.47846 71.1651 3.4781 71.1651ZM52.5167 71.1506C52.5209 71.1602 52.5223 71.165 52.5219 71.1651C52.5215 71.1651 52.5194 71.1603 52.5167 71.1506ZM28 79.9999C43.464 79.9999 56 75.9705 56 70.9999C56 66.0294 43.464 61.9999 28 61.9999C12.536 61.9999 0 66.0294 0 70.9999C0 75.9705 12.536 79.9999 28 79.9999Z" fill="url(#paint0_linear_149_782)"/>
<path d="M27.5299 51.1731L49.582 39.287L27.5299 71.9999L5.58201 39.287L27.5299 51.1731Z" fill="#53EB45"/>
<path d="M5.582 32.6077L27.5299 20.7742L49.582 32.6603L27.5299 -4.95453e-05L5.582 32.6077Z" fill="#53EB45"/>
<defs>
<linearGradient id="paint0_linear_149_782" x1="28" y1="61.9999" x2="28" y2="79.9999" gradientUnits="userSpaceOnUse">
<stop stop-color="white" stop-opacity="0.75"/>
<stop offset="1" stop-color="#53EB45"/>
</linearGradient>
</defs>
</svg>
